<svg xmlns="http://www.w3.org/2000/svg" xmlns:xlink="http://www.w3.org/1999/xlink" width="179" height="92" fill="none" viewBox="0 0 179 92">
  <path fill="url(#pattern0)" d="M0 0h179v92H0z"/>
  <path fill="url(#paint0_linear)" d="M6.03 49.823h6.698l8.407 26.293L29.8 49.721h5.236l8.661 26.395 8.411-26.293h6.496L46.365 85.54h-5.388l-8.66-25.484-8.662 25.484h-5.337L6.03 49.823z"/>
  <path fill="url(#paint1_linear)" d="M55.934 77.584v-.102c0-5.773 4.483-8.611 10.975-8.611 2.972 0 5.087.455 7.154 1.115v-.66c0-3.8-2.317-5.824-6.597-5.824-2.972 0-5.185.655-7.603 1.671l-1.612-4.812c2.922-1.318 5.79-2.178 10.022-2.178 3.976 0 6.949 1.064 8.81 2.99 1.963 1.927 2.871 4.762 2.871 8.259v15.856h-5.942v-3.344c-1.814 2.179-4.583 3.902-8.66 3.902-4.99 0-9.418-2.889-9.418-8.262zm18.227-1.923v-1.825c-1.56-.608-3.624-1.064-6.043-1.064-3.928 0-6.246 1.672-6.246 4.459v.102c0 2.582 2.267 4.054 5.189 4.054 4.03-.004 7.1-2.331 7.1-5.726z"/>
  <path fill="url(#paint2_linear)" d="M82.069 81.791l2.719-4.156c2.925 2.178 5.992 3.293 8.715 3.293 2.618 0 4.13-1.114 4.13-2.888v-.102c0-2.077-2.82-2.787-5.94-3.749-3.93-1.114-8.31-2.735-8.31-7.853v-.102c0-5.067 4.178-8.16 9.468-8.16 3.324 0 6.948 1.166 9.769 3.042l-2.416 4.356c-2.567-1.57-5.286-2.535-7.502-2.535-2.364 0-3.726 1.115-3.726 2.634v.102c0 1.974 2.872 2.787 5.993 3.8 3.878 1.216 8.259 2.99 8.259 7.802v.102c0 5.624-4.33 8.41-9.87 8.41-3.787.004-7.966-1.362-11.29-3.996z"/>
  <path fill="url(#paint3_linear)" d="M134.74 48.606h6.546v5.825h-6.546v-5.825zm.253 9.93h6.094v26.752h-6.094V58.536z"/>
  <path fill="url(#paint4_linear)" d="M144.559 72.062v-.102c0-7.65 6.047-13.984 14.201-13.984 8.157 0 14.15 6.232 14.15 13.882v.102c0 7.599-6.043 13.933-14.252 13.933-8.106 0-14.099-6.229-14.099-13.831zm22.26 0v-.102c0-4.71-3.374-8.611-8.157-8.611-4.885 0-8.006 3.85-8.006 8.509v.102c0 4.66 3.375 8.56 8.107 8.56 4.932.004 8.056-3.846 8.056-8.458z"/>
  <path fill="url(#paint5_linear)" d="M120.84 57.98c-4.128 0-6.597 2.178-8.306 4.662V48.474a33.203 33.203 0 01-6.094 4.047v32.767h6.094V70.19c0-4.156 2.466-6.636 5.992-6.636 3.624 0 5.688 2.382 5.688 6.538v15.197h6.094V68.215c0-6.185-3.472-10.236-9.468-10.236z"/>
  <path fill="url(#paint6_linear)" d="M107.592 24.883h-.571c0 4.876-1.963 9.287-5.141 12.485-3.179 3.198-7.56 5.172-12.41 5.172-4.848 0-9.232-1.974-12.41-5.172a17.67 17.67 0 01-5.142-12.485c0-4.877 1.963-9.288 5.141-12.486 3.179-3.198 7.563-5.172 12.41-5.172 4.848 0 9.232 1.974 12.411 5.172a17.651 17.651 0 015.141 12.486h1.142c0-10.386-8.367-18.807-18.693-18.807-10.327 0-18.694 8.421-18.694 18.807 0 10.385 8.367 18.806 18.694 18.806 10.322 0 18.693-8.421 18.693-18.806h-.571z"/>
  <path fill="url(#paint7_linear)" d="M91.24 24.883L78.46 18.467v12.835l12.779-6.42z"/>
  <path fill="url(#paint8_linear)" d="M87.703 24.883l12.775-6.416v12.835l-12.775-6.42z"/>
  <path fill="url(#paint9_linear)" d="M93.3 26.742l-3.8.574-3.86-.574V23.03l3.83-.578 3.83.578v3.71z"/>
  <defs>
    <linearGradient id="paint0_linear" x1="32.316" x2="32.316" y1="49.721" y2="85.54" gradientUnits="userSpaceOnUse">
      <stop stop-color="#4ACDBA"/>
      <stop offset="1" stop-color="#1E4694"/>
    </linearGradient>
    <linearGradient id="paint1_linear" x1="67.944" x2="67.944" y1="58.183" y2="85.846" gradientUnits="userSpaceOnUse">
      <stop stop-color="#4ACDBA"/>
      <stop offset="1" stop-color="#1E4694"/>
    </linearGradient>
    <linearGradient id="paint2_linear" x1="92.648" x2="92.648" y1="58.074" y2="85.788" gradientUnits="userSpaceOnUse">
      <stop stop-color="#4ACDBA"/>
      <stop offset="1" stop-color="#1E4694"/>
    </linearGradient>
    <linearGradient id="paint3_linear" x1="138.013" x2="138.013" y1="48.606" y2="85.288" gradientUnits="userSpaceOnUse">
      <stop stop-color="#4ACDBA"/>
      <stop offset="1" stop-color="#1E4694"/>
    </linearGradient>
    <linearGradient id="paint4_linear" x1="158.734" x2="158.734" y1="57.976" y2="85.893" gradientUnits="userSpaceOnUse">
      <stop stop-color="#4ACDBA"/>
      <stop offset="1" stop-color="#1E4694"/>
    </linearGradient>
    <linearGradient id="paint5_linear" x1="118.374" x2="118.374" y1="48.474" y2="85.288" gradientUnits="userSpaceOnUse">
      <stop stop-color="#4ACDBA"/>
      <stop offset="1" stop-color="#1E4694"/>
    </linearGradient>
    <linearGradient id="paint6_linear" x1="89.47" x2="89.47" y1="6.076" y2="43.689" gradientUnits="userSpaceOnUse">
      <stop stop-color="#4ACDBA"/>
      <stop offset="1" stop-color="#1E4694"/>
    </linearGradient>
    <linearGradient id="paint7_linear" x1="84.85" x2="84.85" y1="18.467" y2="31.302" gradientUnits="userSpaceOnUse">
      <stop stop-color="#4ACDBA"/>
      <stop offset="1" stop-color="#1E4694"/>
    </linearGradient>
    <linearGradient id="paint8_linear" x1="94.091" x2="94.091" y1="18.467" y2="31.302" gradientUnits="userSpaceOnUse">
      <stop stop-color="#4ACDBA"/>
      <stop offset="1" stop-color="#1E4694"/>
    </linearGradient>
    <linearGradient id="paint9_linear" x1="89.47" x2="89.47" y1="22.453" y2="27.316" gradientUnits="userSpaceOnUse">
      <stop stop-color="#4ACDBA"/>
      <stop offset="1" stop-color="#1E4694"/>
    </linearGradient>
    <pattern id="pattern0" width="1" height="1" patternContentUnits="objectBoundingBox">
      <use xlink:href="#image0"/>
    </pattern>
  </defs>
</svg>
