<svg xmlns="http://www.w3.org/2000/svg" width="127" height="127" fill="none" viewBox="0 0 127 127">
  <path fill="#1E4694" d="M7.938 31.723c.164.018.33.027.496.027h78.382c.166 0 .332-.01.496-.027v2.011h3.97v-25.3a4.47 4.47 0 00-4.466-4.465H8.434a4.47 4.47 0 00-4.465 4.465v31.253h3.969v-7.964zm0-23.29a.497.497 0 01.496-.495h78.382a.497.497 0 01.496.496v18.851a.497.497 0 01-.496.496H8.434a.496.496 0 01-.496-.496V8.434z"/>
  <path fill="#4ACDBA" d="M76.732 84.138a31.752 31.752 0 10-12.172 14.16l-2.12-3.355A27.74 27.74 0 1173.095 82.55l3.637 1.59z"/>
  <path fill="#1E4694" d="M47.625 25.797a7.937 7.937 0 10-7.938-7.938 7.946 7.946 0 007.938 7.938zm0-11.906a3.969 3.969 0 110 7.937 3.969 3.969 0 010-7.937zM33.734 19.844h3.97v3.968h-3.97v-3.968zM33.734 11.906h3.97v3.969h-3.97v-3.969zM57.547 19.844h3.969v3.968h-3.97v-3.968zM57.547 11.906h3.969v3.969h-3.97v-3.969zM65.484 25.797h17.86a1.984 1.984 0 001.984-1.985V11.906a1.984 1.984 0 00-1.984-1.984h-17.86a1.984 1.984 0 00-1.984 1.984v11.906a1.985 1.985 0 001.984 1.985zM67.47 13.89h13.89v7.937H67.47v-7.937zM18.852 23.813h5.953a6.954 6.954 0 006.945-6.946v-2.976a1.984 1.984 0 00-1.984-1.985H13.89a1.984 1.984 0 00-1.985 1.985v2.976a6.953 6.953 0 006.946 6.945zm-2.977-7.938h11.906v.992a2.98 2.98 0 01-2.976 2.977h-5.953a2.98 2.98 0 01-2.977-2.977v-.992zM73.422 35.719h9.922v3.968h-9.922V35.72z"/>
  <path fill="#4ACDBA" d="M55.563 75.406h3.968v3.969h-3.968v-3.969zM49.61 83.344h3.968v3.969H49.61v-3.97zM37.703 81.36h3.969v3.968h-3.969V81.36z"/>
  <path fill="#4ACDBA" d="M47.625 47.625a23.813 23.813 0 1023.813 23.813 23.84 23.84 0 00-23.813-23.813zm0 3.969a19.88 19.88 0 0119.02 14.177 21.254 21.254 0 00-4.54-.414c-6.972.07-10.568 2.97-13.741 5.528-3.057 2.464-5.697 4.592-11.292 4.649-4.45.046-7.074-1.303-9.25-2.824a19.866 19.866 0 0119.803-21.116zm0 39.687a19.878 19.878 0 01-18.773-13.409c2.13.971 4.69 1.632 8.004 1.632.085 0 .17 0 .256-.002 6.973-.07 10.57-2.97 13.742-5.527 3.057-2.465 5.697-4.593 11.292-4.65 1.789-.045 3.573.21 5.277.758a19.866 19.866 0 01-19.798 21.199z"/>
  <path fill="#1E4694" d="M116.086 87.313h-4.988c.018-.165.027-.33.027-.497v-31.75a9.442 9.442 0 00-7.937-9.308v-3.59a4.474 4.474 0 00-4.465-4.465h-6.946a4.47 4.47 0 00-4.465 4.465v4.989L84.6 52.58a11.97 11.97 0 00-1.256 5.325v28.911c0 .166.009.332.027.496h-8.957a6.953 6.953 0 00-6.945 6.946v5.953a6.927 6.927 0 002.089 4.961 6.92 6.92 0 00-2.09 4.961v5.953a6.897 6.897 0 00.671 2.976H35.72v-9.921a1.986 1.986 0 00-1.985-1.985H13.891a1.985 1.985 0 00-1.985 1.985v9.921H8.434a.496.496 0 01-.496-.496v-74.91h-3.97v74.91a4.47 4.47 0 004.466 4.465h98.722v-3.969H74.414a2.975 2.975 0 01-2.977-2.976v-5.953a2.98 2.98 0 012.977-2.977h41.672a2.981 2.981 0 012.976 2.977v5.953a2.976 2.976 0 01-2.976 2.976h-4.961v3.969h4.961a6.954 6.954 0 006.945-6.945v-5.953a6.913 6.913 0 00-2.089-4.961 6.912 6.912 0 002.089-4.961v-5.953a6.953 6.953 0 00-6.945-6.945zM15.875 119.061v-7.937h5.953v3.969h3.969v-3.969h5.953v7.937H15.875zm71.438-47.624h19.843v7.937H87.312v-7.938zm19.843-16.372v4.465h-.992a2.98 2.98 0 01-2.976-2.976v-6.74a5.467 5.467 0 013.968 5.251zM91.281 42.168a.497.497 0 01.496-.496h6.946a.496.496 0 01.496.496v3.473H91.28v-3.473zm-3.13 12.187l2.372-4.746h8.696v6.946a6.954 6.954 0 006.945 6.945h.992v3.969H87.312v-9.564a7.98 7.98 0 01.838-3.55zm-.838 32.461v-3.472h19.843v3.472a.496.496 0 01-.496.496H87.809a.497.497 0 01-.496-.496zm-12.899 16.372a2.98 2.98 0 01-2.977-2.977v-5.953a2.98 2.98 0 012.977-2.977h41.672a2.98 2.98 0 012.976 2.977v5.953a2.976 2.976 0 01-2.976 2.977H74.414z"/>
  <path fill="#4ACDBA" d="M96.282 14.64l3.98 2.176 2.177 3.98a1.98 1.98 0 001.741 1.032 1.987 1.987 0 001.741-1.032l2.176-3.98 3.98-2.176a1.983 1.983 0 000-3.482l-3.98-2.177L105.921 5a1.987 1.987 0 00-2.753-.755 1.98 1.98 0 00-.729.755l-2.177 3.98-3.98 2.177a1.984 1.984 0 000 3.482zm6.395-2.456c.332-.182.606-.456.788-.789l.715-1.306.714 1.306c.182.333.456.607.789.789l1.307.715-1.307.714a1.984 1.984 0 00-.789.789l-.714 1.306-.715-1.306a1.984 1.984 0 00-.789-.789l-1.306-.714 1.307-.715zM112.361 24.845l-2.177 3.98-3.98 2.176a1.991 1.991 0 00-1.032 1.741 1.99 1.99 0 001.032 1.741l3.98 2.177 2.177 3.98a1.98 1.98 0 001.741 1.032 1.98 1.98 0 001.74-1.032l2.177-3.98 3.98-2.177a1.984 1.984 0 000-3.482l-3.98-2.176-2.177-3.98a1.98 1.98 0 00-3.481 0zm1.026 6.394l.715-1.306.714 1.306c.182.333.456.607.789.789l1.307.714-1.307.715a1.984 1.984 0 00-.789.788l-.714 1.307-.715-1.306a1.984 1.984 0 00-.789-.79l-1.306-.714 1.306-.714c.333-.182.607-.456.789-.789z"/>
</svg>
