<svg xmlns="http://www.w3.org/2000/svg" width="1920" height="768" fill="none" viewBox="0 0 1920 768">
  <mask id="a" width="1920" height="768" x="0" y="0" maskUnits="userSpaceOnUse">
    <path fill="#F9F9F9" d="M0 0h1920v768H0z"/>
  </mask>
  <g clip-path="url(#clip0)" mask="url(#a)" opacity=".27">
    <path fill="#1E4694" fill-opacity=".6" d="M931.306 173.199a.664.664 0 00-.165.019c-.464.099-.759.578-.668 1.086l7.395 42.091c.074.435.421.752.83.752h39.434c.404 0 .758-.314.835-.752l7.397-42.091c.084-.508-.215-.987-.68-1.086a.735.735 0 00-.155-.016c-.397 0-.758.301-.837.749l-1.029 5.866c.127-.002.253-.005.385-.005.469 0 .842.414.842.922 0 .518-.373.932-.842.932-.249 0-.486.005-.713.018l-5.897 33.603h-38.034l-5.909-33.603a13.125 13.125 0 00-.73-.018c-.471 0-.847-.414-.847-.932 0-.508.376-.922.847-.922.137 0 .271.003.402.005l-1.031-5.866c-.079-.445-.435-.752-.83-.752z"/>
    <path fill="#1E4694" fill-opacity=".6" d="M984.048 179.812c-.132 0-.258.003-.385.005-3.163.071-4.818 1.027-6.424 1.962-1.33.767-2.598 1.503-4.823 1.694-.373.034-.77.053-1.191.053-2.998 0-4.459-.852-6.017-1.747-1.67-.969-3.39-1.964-6.809-1.964-3.416 0-5.136.995-6.801 1.964-.744.427-1.447.833-2.306 1.149-1.091.409-2.268.598-3.706.598-2.995 0-4.462-.852-6.017-1.747-1.596-.933-3.246-1.886-6.399-1.959a17.667 17.667 0 00-.402-.005c-.472 0-.847.413-.847.921 0 .519.375.933.847.933.253 0 .497.005.729.018 2.515.128 3.862.911 5.285 1.731 1.663.959 3.383 1.956 6.802 1.956 1.619 0 2.968-.217 4.251-.688.985-.362 1.777-.823 2.555-1.268 1.548-.896 3.012-1.749 6.007-1.749 2.995 0 4.459.853 6.017 1.749 1.672.959 3.392 1.956 6.811 1.956.471 0 .909-.018 1.33-.052 2.565-.228 4.046-1.079 5.479-1.904 1.425-.822 2.777-1.608 5.301-1.731.227-.01.467-.018.713-.018.469 0 .842-.414.842-.933 0-.51-.373-.924-.842-.924zM952.383 192.969c-.953 0-1.747.165-2.615.485l-.919.343-.134.27.457 1.469.256.144.902-.343c.651-.218 1.289-.372 2.05-.372 1.266 0 2.086.752 2.086 2.003 0 1.087-.744 1.821-2.036 1.821h-.849l-.201.227v1.522l.201.217h.876c1.521 0 2.406.851 2.406 2.247 0 1.386-.959 2.263-2.48 2.263-.728 0-1.548-.162-2.285-.424l-1.034-.372-.256.136-.488 1.448.125.299 1.076.372c.886.298 1.811.545 2.864.545 2.787 0 4.507-1.532 4.507-4.031 0-1.566-.653-2.797-1.995-3.397v-.296c1.093-.555 1.598-1.432 1.598-2.791 0-2.371-1.565-3.785-4.112-3.785zM963.701 205.262c-1.763 0-2.797-1.909-2.797-5.143 0-3.216 1.034-5.157 2.797-5.157 1.77 0 2.804 1.941 2.804 5.157.002 3.232-1.034 5.143-2.804 5.143zm0-12.293c-3.012 0-4.842 2.747-4.842 7.15 0 4.4 1.83 7.144 4.842 7.144 3.029 0 4.857-2.744 4.857-7.144 0-4.403-1.828-7.15-4.857-7.15zM972.191 197.791c-.803 0-1.272-.665-1.272-1.768 0-1.095.469-1.757 1.272-1.757.778 0 1.266.662 1.266 1.757 0 1.105-.49 1.768-1.266 1.768zm0-4.672c-1.507 0-2.433 1.121-2.433 2.904 0 1.802.926 2.936 2.433 2.936 1.498 0 2.424-1.134 2.424-2.936 0-1.783-.926-2.904-2.424-2.904zM1383.22 149.501v-1.783h32.58v1.783h-32.58zm-1.63-3.567c-.45 0-.81-.4-.81-.893v-34.774h37.47v34.777c0 .492-.37.893-.82.893h-35.84v-.003zm-.81-37.45v-6.241c0-1.477 1.09-2.674 2.44-2.674h32.58c1.35 0 2.44 1.197 2.44 2.674v6.241h-37.46zm35.02-10.7h-32.58c-2.25.002-4.07 1.997-4.07 4.457v42.8c0 1.477 1.09 2.677 2.44 2.677v2.674c0 .492.37.893.82.893h34.21c.45 0 .81-.401.81-.893v-2.674c1.35 0 2.45-1.2 2.45-2.677v-42.8c-.01-2.46-1.83-4.455-4.08-4.458z"/>
    <path fill="#1E4694" fill-opacity=".6" d="M1384.03 104.917v-1.783h8.15v1.783h-8.15zm8.97-3.567h-9.78c-.45 0-.81.401-.81.891v3.566c0 .493.36.891.81.891h9.78c.45 0 .81-.401.81-.891v-3.566c0-.49-.36-.891-.81-.891zM1397.88 104.917c-.45 0-.81-.401-.81-.89 0-.493.36-.893.81-.893.45 0 .82.4.82.893 0 .492-.37.89-.82.89zm0-3.567c-1.35 0-2.44 1.197-2.44 2.674 0 1.477 1.09 2.674 2.44 2.674 1.35 0 2.45-1.197 2.45-2.674 0-1.477-1.1-2.674-2.45-2.674zM1404.4 104.917c-.45 0-.81-.401-.81-.89 0-.493.36-.893.81-.893.45 0 .82.4.82.893-.01.492-.37.89-.82.89zm0-3.567c-1.35 0-2.44 1.197-2.44 2.674 0 1.477 1.09 2.674 2.44 2.674 1.35 0 2.44-1.197 2.44-2.674 0-1.477-1.09-2.674-2.44-2.674zM1410.91 103.134h-1.62c-.45 0-.82.4-.82.893 0 .492.37.89.82.89h1.62c.45 0 .82-.4.82-.89 0-.493-.37-.893-.82-.893zM1415.8 103.134h-1.63c-.45 0-.81.4-.81.893 0 .492.36.89.81.89h1.63c.45 0 .82-.4.82-.89 0-.493-.37-.893-.82-.893zM1399.51 140.584c-6.3 0-11.4-5.589-11.4-12.484 0-6.896 5.1-12.482 11.4-12.482 6.3 0 11.4 5.589 11.4 12.482 0 6.893-5.1 12.479-11.4 12.484zm0-26.75c-7.2 0-13.03 6.388-13.03 14.266 0 7.88 5.83 14.267 13.03 14.267 7.2 0 13.03-6.387 13.03-14.267 0-7.875-5.83-14.258-13.03-14.266z"/>
    <path fill="#1E4694" fill-opacity=".6" d="M1399.51 137.91c-3.28-.003-6.3-1.969-7.87-5.128a17.963 17.963 0 015.43-1.113c.05-.002.1-.002.15-.002.96 0 1.91.277 2.74.803 1.06.647 2.25.983 3.47.983.05 0 .1 0 .16-.003h.04c1.35 0 2.69-.34 3.9-.998-1.51 3.339-4.62 5.453-8.02 5.458zm0-19.616h.02c4.93 0 8.93 4.366 8.94 9.761 0 .731-.07 1.459-.22 2.168-.42.155-.84.333-1.25.535a6.867 6.867 0 01-3.41.909h-.01c-.05.002-.1.002-.14.002-.97 0-1.92-.277-2.75-.804a6.652 6.652 0 00-3.62-.979c-2.07.091-4.12.51-6.08 1.246-1.53-5.143 1.03-10.674 5.73-12.356a8.268 8.268 0 012.79-.482zm.05-1.786h-.05-.01c-5.84 0-10.57 5.178-10.58 11.568 0 1.516.27 3.017.8 4.418v.055l.03.055c1.7 4.426 5.63 7.089 9.76 7.089 1.37 0 2.76-.293 4.1-.911 3.01-1.391 5.27-4.227 6.12-7.684v-.044c1.52-6.16-1.82-12.495-7.44-14.148a9.623 9.623 0 00-2.73-.398zM772.589 69.847c-1.3 0-2.352-1.152-2.352-2.574s1.052-2.575 2.352-2.575h17.241c1.299 0 2.352 1.153 2.352 2.575 0 1.422-1.053 2.574-2.352 2.574h-17.241zm28.998-1.212v-3.937h3.593l-3.593 3.937zm-28.998-5.652c-1.3 0-2.352-1.152-2.352-2.574s1.052-2.575 2.352-2.575h17.241c1.299 0 2.352 1.153 2.352 2.575 0 1.422-1.053 2.574-2.352 2.574h-17.241zm0-6.864c-1.3 0-2.352-1.152-2.352-2.575 0-1.422 1.052-2.574 2.352-2.574h17.241c1.299 0 2.352 1.152 2.352 2.575 0 1.422-1.053 2.574-2.352 2.574h-17.241zm20.375-20.697c3.967 0 7.254-2.878 7.768-6.6l7.524 1.498 7.113 7.783-5.16 5.65-4.933-5.4-1.108 1.215 2.122 2.32V62.98h-5.486c-.433 0-.782.385-.782.86v6.004h-7.074c1.303-1.848.993-4.507-.699-5.934l-.086-.07c1.732-1.386 2.11-4.044.844-5.94a4.011 4.011 0 00-.844-.925c1.739-1.4 2.11-4.077.832-5.979-.736-1.094-1.906-1.741-3.148-1.741h-10.201v-7.367l2.122-2.32-1.11-1.216-4.931 5.4-5.16-5.649 7.11-7.783 7.524-1.498c.507 3.722 3.797 6.6 7.763 6.6zm-.184-1.713c-2.263 0-4.363-1.312-5.514-3.457l5.698-1.558 5.699 1.558c-1.151 2.145-3.251 3.457-5.512 3.457-.062 0-.124 0-.187-.003-.059 0-.122.003-.184.003zm.189-15.339c-.261 0-.524.029-.787.086-1.823.41-3.134 2.164-3.134 4.201h1.567c0-1.422 1.055-2.574 2.352-2.574 1.299 0 2.351 1.152 2.351 2.574s-1.052 2.575-2.351 2.575c-.433 0-.785.385-.785.859v1.045l-5.419 1.485-.064-.815-.283-.657-.641-.186-8.622 1.715-.416.236-7.835 8.58a.916.916 0 000 1.212l6.27 6.864a.748.748 0 00.553.251.75.75 0 00.555-.251l1.797-1.967v5.65H772.581c-2.153 0-3.902 1.906-3.906 4.265-.005 1.362.588 2.648 1.591 3.457-1.73 1.386-2.108 4.044-.845 5.94.237.354.522.665.845.924-1.737 1.399-2.111 4.078-.831 5.98.737 1.097 1.905 1.74 3.149 1.74h28.223l.555-.25 6.27-6.865.223-.605h.007V43.603l1.796 1.967a.747.747 0 00.553.251.75.75 0 00.555-.251l6.27-6.864a.913.913 0 000-1.213l-7.837-8.58-.414-.235-8.62-1.715a.626.626 0 00-.138-.013c-.371 0-.701.29-.771.704l-.014.152-.067.814-5.419-1.484v-.275c2.122-.472 3.488-2.74 3.055-5.06-.387-2.03-2.019-3.43-3.842-3.43z"/>
    <path fill="#1E4694" fill-opacity=".6" d="M790.613 52.688h-18.807v1.715h18.807v-1.715zM789.83 59.552h-18.024v1.716h18.024v-1.716zM789.83 66.414h-18.024v1.715h18.024v-1.715zM104.961 688.148l-5.206-5.699 1.301-1.425 5.204 5.699-1.299 1.425zm-6.507-7.124l-4.682-5.125 6.342-1.6 12 13.136-3.904 4.275-1.953-2.137 1.953-2.138a1.078 1.078 0 000-1.424l-6.508-7.121a.876.876 0 00-.65-.293.88.88 0 00-.651.293l-1.947 2.134zm1.952-8.841a.792.792 0 00-.206.026l-8.457 2.137a.965.965 0 00-.677.705c-.094.351-.003.733.232.99l16.266 17.805a.873.873 0 00.65.294.877.877 0 00.651-.294l5.203-5.698a1.07 1.07 0 000-1.425l-13.009-14.244a.881.881 0 00-.653-.296zM104.31 693.548a.882.882 0 00-.651.296 1.076 1.076 0 000 1.424l1.302 1.425a.878.878 0 00.65.296.879.879 0 00.651-.296 1.077 1.077 0 000-1.425l-1.301-1.424a.882.882 0 00-.651-.296zM100.406 689.277a.88.88 0 00-.651.296 1.074 1.074 0 000 1.422l1.301 1.425c.18.196.414.296.651.296.234 0 .471-.1.651-.296a1.077 1.077 0 000-1.425l-1.302-1.422a.871.871 0 00-.65-.296z"/>
    <path fill="#1E4694" fill-opacity=".6" d="M103.009 705.951l-31.118-34.064c.38-.196.785-.293 1.186-.293.718 0 1.424.306 1.955.885l29.278 32.05-1.301 1.422zm5.854-30.625l-2.603-2.849 1.301-1.425 2.601 2.847-1.299 1.427zm-5.491 25.325L78.19 673.087a53.784 53.784 0 008.342-3.138c3.357-1.49 6.201-2.755 8.852-2.755 2.182 0 4.23.857 6.323 3.148l17.182 18.806-2.914 10.848-12.603.655zm-7.94-35.479c-3.048 0-6.194 1.399-9.594 2.907a46.284 46.284 0 01-9.2 3.305l-.305-.33c-.897-.982-2.074-1.471-3.25-1.471-1.178 0-2.355.489-3.254 1.471a1.078 1.078 0 000 1.425l32.529 35.609a.876.876 0 00.651.296.878.878 0 00.65-.296l2.603-2.849a1.077 1.077 0 000-1.425l-1.131-1.238 11.586-.605c.392-.019.727-.309.837-.721l2.249-8.359a3.445 3.445 0 002.077.704c.947 0 1.887-.398 2.598-1.176l1.301-1.424c.359-.393.83-.589 1.302-.589.471 0 .942.196 1.301.589a.88.88 0 00.651.296c.237 0 .471-.1.65-.296a1.073 1.073 0 000-1.422c-.72-.786-1.66-1.179-2.602-1.179-.943 0-1.883.393-2.603 1.179l-1.302 1.422c-.359.393-.83.589-1.301.589-.472 0-.943-.196-1.302-.589l-.205-.225.437-1.627a1.063 1.063 0 00-.232-.995l-10.409-11.395 1.952-2.137a1.07 1.07 0 000-1.425l-3.904-4.274a.878.878 0 00-.651-.295.885.885 0 00-.651.295l-1.952 2.137-1.952-2.137c-2.512-2.752-5.007-3.745-7.574-3.745zM80.238 687.14a.88.88 0 00-.65.293c-.08.086-.159.128-.326.128-.118 0-.28-.021-.517-.057a2.157 2.157 0 00-.723-.123c-.622 0-1.23.267-1.684.764-.629.692-.854 1.705-.586 2.635.084.628.072.775-.064.927-.08.086-.16.128-.33.128-.12 0-.28-.018-.517-.057a2.156 2.156 0 00-.723-.123c-.622 0-1.232.267-1.684.764-.63.689-.857 1.705-.586 2.635.081.631.07.778-.065.927a1.072 1.072 0 000 1.425c.18.196.414.293.65.293a.88.88 0 00.652-.293 3.016 3.016 0 00.586-2.635c-.084-.631-.072-.778.064-.927.082-.089.16-.128.33-.128.12 0 .28.021.517.057.237.081.481.123.723.123.622 0 1.232-.267 1.684-.764.632-.689.856-1.708.586-2.635-.081-.628-.072-.775.065-.927.081-.086.16-.128.328-.128.117 0 .28.021.519.057.222.066.447.097.672.097.634 0 1.256-.256 1.734-.738a1.072 1.072 0 000-1.425.898.898 0 00-.655-.293zM84.79 692.126a.88.88 0 00-.65.293c-.079.087-.16.129-.328.129a3.73 3.73 0 01-.517-.058 2.157 2.157 0 00-.722-.123 2.27 2.27 0 00-1.682.765c-.632.688-.854 1.705-.586 2.634.081.629.072.775-.065.925-.081.089-.16.128-.33.128-.12 0-.28-.021-.517-.058a2.22 2.22 0 00-.72-.123 2.28 2.28 0 00-1.686.765c-.63.689-.857 1.705-.589 2.635.084.628.072.777-.067.927a1.076 1.076 0 000 1.424.88.88 0 00.65.296.88.88 0 00.652-.296c.593-.709.813-1.705.588-2.634-.084-.629-.072-.778.065-.927.081-.087.16-.129.33-.129.117 0 .28.019.517.058.237.084.48.123.725.123.622 0 1.23-.267 1.684-.762.629-.691.854-1.708.586-2.635-.081-.628-.072-.775.064-.927.08-.086.16-.128.328-.128.12 0 .28.021.52.058.222.065.447.096.672.096.634 0 1.253-.256 1.734-.735a1.078 1.078 0 000-1.425.886.886 0 00-.655-.296zM89.346 697.11a.88.88 0 00-.651.296c-.079.086-.158.125-.325.125-.12 0-.283-.02-.52-.057a2.234 2.234 0 00-.722-.123c-.622 0-1.232.267-1.684.764-.63.689-.854 1.705-.584 2.635.081.629.072.778-.065.927-.081.089-.16.129-.327.129-.12 0-.28-.021-.517-.058a2.235 2.235 0 00-.723-.123c-.622 0-1.232.267-1.684.765-.632.691-.856 1.707-.588 2.637.081.628.071.778-.067.927a1.078 1.078 0 000 1.425.88.88 0 00.65.293.88.88 0 00.651-.293c.593-.713.814-1.705.586-2.635-.081-.629-.072-.778.065-.927.081-.089.16-.128.33-.128.12 0 .28.02.517.057.236.081.48.123.722.123.622 0 1.232-.267 1.687-.764.629-.689.854-1.705.584-2.635-.082-.629-.07-.775.064-.925.08-.089.158-.128.325-.128.118 0 .28.021.52.058.22.065.447.097.67.097.633 0 1.255-.257 1.734-.736a1.072 1.072 0 000-1.425.86.86 0 00-.648-.301zM1445.22 482.392l-.31-.335-.01-4.963c3.21 1.451 7.94 1.922 12.91 2.187v2.752l-.3.338-12.29.021zm-1.07-6.917l.27-.497-.27.497zm35.41 7.425c-4.64-.003-7.73-1.312-10.65-2.695-2.91-1.383-5.65-2.865-9.43-3.035-.37-.019-.75-.034-1.13-.053-5.1-.233-10.98-.759-13.7-2.561-1.08-.717-1.61-1.503-1.61-2.532v-.296c-.01-3.934.21-8.378 1.32-10.822 3.71 3.044 10.09 5.406 15.82 7.098a131.715 131.715 0 0011.7 2.841l.62.118.67.126-.34-3.829c.15-1.024.72-3.549 1.85-4.465l.32-.126c.2.008.58.217 1.05.707 1.51 1.522 3.58 5.041 6.37 6.896 3.47 2.299 6.33 2.799 9.9 2.799h.16c.5-.002 1.03-.008 1.57-.023l.39-.008h.03c2.01 0 3.48.437 4.41 1.108.83.607 1.24 1.367 1.32 2.288-.31.173-.85.467-1.63.859-3.69 1.87-12 5.602-18.97 5.605h-.04zm-7.55-13.178c-.59-.11-5.7-1.09-11.56-2.813-5.72-1.676-12.13-4.099-15.57-6.985l.68-.353.08.005c2.02.291 7.01 2.244 12.21 4.23 5.23 1.982 10.7 4.004 14.03 4.465l.13 1.451zm-26.45-11.283c-.83.011-1.36.655-1.49.736l.1.152-.12-.107-.31.545c-1.57 2.781-1.72 7.678-1.73 11.963v.301-.005c-.01 1.416.76 2.514 1.86 3.305l.01 6.728c0 .809.6 1.466 1.34 1.466v-.566.566l12.29-.021c.74-.002 1.34-.66 1.34-1.469V478.272l.59.027c3.54.157 6.12 1.539 9.06 2.943 2.93 1.396 6.23 2.789 11.04 2.789h.06c9.7-.031 21.36-6.759 21.4-6.77l.27-.159v-.343c.01-1.438-.64-2.727-1.82-3.562-1.18-.843-2.85-1.291-5-1.294l-.03.003-.39.008c-.55.013-1.06.021-1.56.023h-.08c-3.54-.008-6.1-.437-9.45-2.637-1.67-1.095-3.14-2.975-4.41-4.607-.63-.817-1.22-1.571-1.78-2.147-.57-.563-1.11-1.008-1.8-1.027h-.09l-.62.241-.08.026-.06.053c-1.64 1.383-2.12 4.179-2.3 5.274-3.16-.479-8.52-2.435-13.61-4.376-5.23-1.985-10.14-3.939-12.41-4.282l-.22-.016zM835.589 754.118l.049.018-.049-.018zM841.415 720.808l-.012.063.012-.063zm-18.967-13.66c.651-.393 1.299-.571 1.969-.571.464 0 .938.087 1.428.265.948.343 1.665 1.008 2.218 1.974l.105.184.562.275.201.099.216-.055a9.701 9.701 0 012.452-.33l.545.016c.718.044 1.397.118 2.019.319l.216.071.545-.238.206-.089.115-.207c.715-1.291 1.677-1.998 3.024-2.216l.624-.047c1.811.003 3.39 1.221 4 3.198.139.458.206.935.206 1.409.002 1.372-.572 2.729-1.577 3.603l-.002.003-.251.246-.213.605.098.511c.282.94.419 1.888.419 2.844 0 .592-.053 1.189-.158 1.791-.29 1.674-.938 3.148-1.96 4.445l-.007.007-.127.176-.772 1.058 1.428.115.024.003h.024l3.383.002c.887 0 1.775-.002 2.665-.01h.043c.607 0 1.117.092 1.593.364 1.034.608 1.572 1.697 1.577 2.818a3.367 3.367 0 01-.833 2.223l-.002.003c-.56.639-1.204.932-2.024.945-.591.003-1.187.006-1.78.006l-2.854-.003H840.812v1.019c.002 2.338.007 4.677.007 7.019 0 1.712-.007 3.43-.007 5.151 0 .765 0 1.527.005 2.291v.042c0 .679-.043 1.271-.223 1.823-.543 1.645-1.947 2.669-3.452 2.671-.378 0-.761-.065-1.144-.201-1.289-.48-2.043-1.357-2.413-2.787-.113-.437-.115-1.008-.144-1.637v-.002l-.012-.553c0-.314.007-.641.007-.987v-.715h-.651l-1.222.002c-.302 0-.596.001-.892-.002l-.314-.003-.347.466-.146.197v.254c.003.38.003.757.003 1.134l-.003.731c-.019 1.471-.528 2.524-1.607 3.399a3.33 3.33 0 01-2.065.704 3.406 3.406 0 01-2.017-.652c-1.15-.867-1.658-1.932-1.679-3.454v-.003c-.005-1.244-.01-2.49-.01-3.739l.003-4.99v-.002c-.003-2.064-.003-4.127-.008-6.194v-.977H820.725l-2.052-.002c-.553 0-1.108.002-1.661.01l-.04.003c-1.553-.003-2.842-1.27-2.943-2.931l-.007-.241c.002-1.702 1.117-2.956 2.471-3.135a8.707 8.707 0 011.091-.055l.682.003h.062c1.118-.005 2.232-.005 3.35-.005h1.713l.134-.016 1.141-.141-.838-1.197-.004-.008-.008-.01c-.899-1.21-1.543-2.528-1.856-4.023a10.55 10.55 0 01-.23-2.171c0-1.003.149-2.001.457-2.994l.065-.209-.151-.584-.055-.215-.158-.141c-1.134-1.027-1.648-2.171-1.655-3.586 0-.335.031-.686.095-1.052v-.003c.247-1.414.945-2.399 2.12-3.114l.019-.01-.019.01zm1.955-1.998c-.883 0-1.761.249-2.589.749-1.452.861-2.464 2.27-2.773 4.08a7.676 7.676 0 00-.119 1.325c-.008 1.75.705 3.308 1.966 4.507l.003.016a11.652 11.652 0 00-.469 3.208c0 .831.088 1.663.265 2.491.282 1.349.852 2.54 1.541 3.651h-.555c-1.117 0-2.235 0-3.354.002h-.06l-.682-.002c-.399 0-.816.01-1.244.063-2.002.254-3.624 2.137-3.622 4.554l.012.338c.153 2.44 2.033 4.261 4.239 4.261h.062c.546-.008 1.094-.011 1.644-.011.682 0 1.366.003 2.053.003H821.173c.005 1.914.007 3.829.007 5.743l-.002 4.989c0 1.249.002 2.498.009 3.748-.007 1.906.778 3.561 2.256 4.63.818.6 1.782.893 2.744.893.995 0 1.998-.314 2.828-.974 1.376-1.074 2.148-2.674 2.146-4.547l.002-.738-.002-.621h.957l-.002.272.014.634c.031.569.014 1.234.189 1.938l.086.343-.065-.256c.46 1.786 1.613 3.108 3.242 3.679a4.54 4.54 0 001.55.273c2.048.002 3.945-1.399 4.68-3.615v-.002c.258-.794.297-1.569.297-2.305v-.047c-.003-.762-.005-1.522-.005-2.286 0-1.716.007-3.434.007-5.152 0-2.205-.002-4.407-.005-6.607.842 0 1.687.003 2.534.003l1.787-.003c1.131-.003 2.179-.479 2.964-1.388a4.875 4.875 0 001.191-3.208c.003-1.627-.806-3.227-2.268-4.081l-.002-.002c-.723-.417-1.476-.529-2.201-.529h-.055c-.885.008-1.768.013-2.653.013l-2.361-.003c.784-1.246 1.389-2.598 1.65-4.109a11.371 11.371 0 00-.28-5.238c1.268-1.16 1.986-2.87 1.988-4.63 0-.623-.088-1.252-.275-1.859-.77-2.538-2.868-4.172-5.225-4.175h-.009l-.806.063c-1.613.238-2.929 1.192-3.807 2.669-.703-.194-1.399-.275-2.062-.32l-.62-.018c-.846 0-1.677.136-2.495.333l-.108-.05c-.669-1.082-1.574-1.941-2.746-2.36a5.436 5.436 0 00-1.835-.332c0-.003-.005-.003-.009-.003z"/>
    <path fill="#1E4694" fill-opacity=".6" d="M838.865 708.366c-.857 0-1.673.459-2.127 1.234a10.732 10.732 0 013.859 3.705c.66-.502 1.016-1.71.813-2.721-.222-1.12-1.055-1.982-2.098-2.176a2.6 2.6 0 00-.447-.042zM824.4 708.358c-.11 0-.222.008-.335.026-1.028.162-1.94 1.097-2.17 2.268-.22 1.108.28 2.231.821 2.645.983-1.592 2.285-2.794 3.849-3.695-.323-.634-1.213-1.244-2.165-1.244zM831.075 720.285c-.256 0-.512 0-.766.002-.339.003-.605.173-.734.529-.134.364-.046.679.21.951.321.34.613.718.96 1.027.351.319.512.673.461 1.178-.038.396-.009.796-.009 1.221l-.239-.035c-.637-.123-1.187-.445-1.656-.929l-.402-.136-.086.649c.624.681 1.381 1.074 2.249 1.181.167.021.333.032.493.032 1.048 0 1.969-.427 2.753-1.26l-.146-.602-.397.154c-.519.542-1.143.83-1.899.948 0-.642-.003-1.249.005-1.854l.074-.142c.466-.508.945-1.003 1.404-1.516a.823.823 0 00.158-.864c-.115-.317-.335-.513-.651-.519a81.699 81.699 0 00-1.782-.015zM827.687 716.076l-.478-.529.497-.542.479.539-.498.532zm-.057-2.197c-.77 0-1.45.777-1.447 1.655.002.89.672 1.663 1.44 1.668h.014c.912 0 1.572-.707 1.572-1.689 0-.922-.687-1.637-1.574-1.637 0 .003-.003.003-.005.003zM835.577 716.102h-.016l-.486-.571a.552.552 0 01.543-.55h.005l.478.561c-.007.322-.229.56-.524.56zm-.021-2.228h-.024c-.787.015-1.46.785-1.457 1.663.005.893.689 1.668 1.471 1.668h.019c.895-.011 1.548-.731 1.541-1.692-.012-.917-.696-1.639-1.55-1.639zM298.408 604.375c.244 0 .498-.021.761-.066.373-.065.744-.136 1.119-.207-.375.092-.758.147-1.131.249l-.003.003a3.777 3.777 0 01-1 .152 2.103 2.103 0 01-1.136-.346c.44.131.9.215 1.39.215zm-10.151 9.312c-.737-1.846-1.407-3.731-1.942-5.643-1.912-6.833-3.874-13.653-6.18-20.365v-.002c-.306-.878-.603-1.726-.684-2.512l-.034-.605c.022-1.912.95-3.216 2.838-3.949a5.724 5.724 0 012.004-.356h.012c3.067 0 6.268 2.33 7.056 5.861.244 1.068.315 2.16.315 3.286 0 .912-.045 1.841-.081 2.787v-.003c-.036.964-.213 1.993-.239 3.101l-.003.325c-.012 4.07 1.778 7.267 4.713 9.58a3.322 3.322 0 002.103.736h.019c.443 0 .883-.076 1.319-.197 2.559-.704 5.131-1.17 7.737-1.17l.478.005c.723.016 1.462.118 2.194.262l.002.002.01.003-.012-.003c1.581.315 2.722 1.454 3.825 2.892 1.402 1.833 2.299 3.805 2.299 6.125l-.004.257v-.003c-.008.498-.185 1.1-.326 1.786l-.036.003c-2.201-.011-4.404-.011-6.607-.011-1.546 0-3.091 0-4.634.003v-.003h-.651c-1.732 0-3.462.003-5.192.003-1.873 0-3.746-.003-5.617-.013a14.926 14.926 0 01-2.211-.199c-1.189-.197-2.007-.841-2.471-1.983l-.021-.052.021.052zm-3.995-34.854c-.821 0-1.641.136-2.426.432-2.273.817-3.739 2.781-3.718 5.298l.041.764c.112 1.043.462 1.988.758 2.86v-.002c2.292 6.659 4.244 13.453 6.156 20.278.553 1.977 1.239 3.912 1.993 5.798.619 1.59 1.923 2.595 3.483 2.826.778.123 1.579.209 2.388.212 1.873.013 3.751.016 5.624.016l4.538-.003v.003h.654c1.76 0 3.521-.003 5.284-.003 2.201 0 4.405.003 6.603.01l.802-.219.5-.852c.11-.597.339-1.288.368-2.1v-.003l.003-.296c.002-2.744-1.082-5.062-2.606-7.044-1.153-1.504-2.543-2.962-4.588-3.374l-.003-.002a14.507 14.507 0 00-2.397-.283l-.507-.005c-.746 0-1.479.115-2.215.18-2.455-1.825-3.845-4.363-4.938-7.251.629-.212 1.186-.401 1.746-.595 2.656-.922 5.314-1.833 7.964-2.781a7.514 7.514 0 001.654-.83c1.098-.739 1.696-1.818 1.523-3.266-.169-1.446-.956-2.378-2.184-2.878a4.082 4.082 0 00-1.555-.301c-.562 0-1.124.107-1.684.285-4.534 1.438-9.067 2.873-13.596 4.332l-.61.592c-.23.557-.335 1.144-.462 1.726l.008-.097v-.003c.033-.932.083-1.88.083-2.847 0-1.189-.074-2.404-.354-3.632-.983-4.266-4.694-6.938-8.33-6.945z"/>
    <path fill="#1E4694" fill-opacity=".6" d="M292.908 574.511c-2.684 0-5.447 2.158-5.756 4.672 3.663 1.357 5.658 4.141 5.873 8.391.153.021.309.032.464.032 2.469 0 4.929-2.687 5.319-5.924.406-3.368-2.036-6.686-5.247-7.126a4.432 4.432 0 00-.653-.045zM313.786 605.296l.527.639c1.918 2.122 3.217 4.56 3.299 7.64l.32.392c1.239.493 2.476.983 3.735 1.423.536.191 1.069.29 1.593.29.797 0 1.572-.235 2.309-.754 1.33-.94 1.605-2.661.677-4.067-.522-.791-1.235-1.286-2.063-1.603-1.485-.573-2.976-1.134-4.461-1.7-1.969-.746-3.936-1.498-5.936-2.26zM311.958 617.71c-.392 0-.492.202-.803.843l-.467.938-.5.332c-2.6.008-5.201.014-7.801.014-2.601 0-5.202-.006-7.802-.014l-.538-.364c-.261-.437-.445-.927-.689-1.382l-.359-.322a2.48 2.48 0 00-.4-.027c-.179 0-.373.011-.595.011.469.977.911 1.857 1.313 2.76.163.367.354.498.727.498h.017c1.809-.011 3.617-.013 5.426-.013l4.974.002h2.749c1.177 0 2.356-.002 3.533-.01l.529-.191c.497-.962.952-1.946 1.445-2.978-.345-.055-.582-.097-.759-.097zM289.001 586.26h-3.514v3.902c.038.003.076.003.115.003 2.06-.003 3.591-2.137 3.399-3.905z"/>
    <path fill="#1E4694" fill-opacity=".6" d="M285.487 586.241h-.015v.02h.015v-.02zM285.472 582.397c-2 .018-3.602 1.786-3.516 3.844h3.516v-3.844zM308.466 606.494c-1.733 0-3.426 1.951-3.278 3.86h3.565v-3.842a2.137 2.137 0 00-.287-.018zM308.771 610.354h-.018v.019l.018-.019zM308.771 610.356l-.018.018h.018v-.018z"/>
    <path fill="#1E4694" fill-opacity=".6" d="M312.229 610.372h-3.46v3.889c2.019-.081 3.649-1.904 3.46-3.889z"/>
    <g>
      <path fill="#1E4694" fill-opacity=".6" d="M36.13 512.996c-3.443 0-7.158-2.048-8.931-5.29-.919-1.663-1.392-3.609-1.392-5.56 0-.846.088-1.692.268-2.512.557-2.558 1.952-4.627 3.655-6.521 1.627-.838 2.708-1.547 3.672-1.629.543-.057 1.06-.086 1.55-.086 3.534.013 5.702 1.388 7.08 3.245 1.373 1.859 1.92 4.287 1.92 6.332.006 1.331-.243 2.486-.56 3.138l-.406.471-.028.045-.11.157c-.567.785-3.206 3.994-7.269 3.994h-.035c-.44 0-.9-.037-1.378-.116-2.835-.445-4.888-3.645-4.88-6.748.002-1.37.387-2.685 1.248-3.761 1.057-1.32 2.476-2.017 3.902-2.017.919 0 1.84.288 2.694.901 1.308.932 2.325 2.556 2.306 3.991a3.219 3.219 0 01-.593 1.87c-.625.912-1.66 1.38-2.701 1.38h-.008c-.784 0-1.54-.272-2.069-.751-.529-.49-.864-1.145-.87-2.127 0-.442-.328-.804-.735-.804s-.735.362-.735.804c-.007 1.43.563 2.614 1.405 3.365.842.757 1.923 1.121 3.012 1.121 1.428 0 2.918-.639 3.875-2.021a4.955 4.955 0 00.89-2.839c-.019-2.219-1.359-4.159-2.969-5.335-1.086-.786-2.299-1.168-3.495-1.168h-.007c-1.869 0-3.69.914-5.007 2.564-1.118 1.393-1.613 3.116-1.613 4.819.01 3.81 2.417 7.689 6.127 8.338a9.422 9.422 0 001.6.136c5.328-.028 8.316-4.399 8.568-4.763l9.416-10.926 24.132.432-16.503 17.819H58.37c-3.813 0-7.632-.016-11.447-.016-3.546 0-7.091.013-10.632.063h-.124c-.015.005-.024.005-.036.005zm-3.431-22.983l11.464-11.712c1.4-1.344 2.964-1.904 4.555-1.907h.017c2.134 0 4.316 1.058 5.943 2.711 1.636 1.658 2.689 3.881 2.686 6.146-.002 1.315-.346 2.661-1.165 3.994l-10.856 12.6.079-.87c-.003-2.344-.608-5.107-2.244-7.34-1.627-2.229-4.314-3.845-8.18-3.845h-.043c-.54 0-1.103.031-1.691.092l-.565.131zm15.998-15.227c-1.907 0-3.854.71-5.507 2.31l-.005.003-13.56 13.851c-2.187 2.237-4.218 4.829-4.979 8.313a13.592 13.592 0 00-.308 2.886c.002 2.231.54 4.462 1.602 6.392 2.123 3.816 6.266 6.055 10.22 6.066l.144-.003a797.9 797.9 0 0110.613-.06c3.813 0 7.631.013 11.447.013h3.39l19.424-20.972-26.292-.474 2.483-2.881.034-.055c.985-1.59 1.433-3.284 1.43-4.926-.048-5.628-4.985-10.429-10.115-10.465-.007.002-.014.002-.021.002z"/>
    </g>
    <g>
      <path fill="#1E4694" fill-opacity=".6" d="M1138.09 536.634l3.85-29.371H1177.78l3.85 29.371h-43.54zm40.82-30.796h-38.1l-4.22 32.224h46.54l-4.22-32.224zM1159.86 494.695c-4.74.006-8.53 4.4-8.53 9.777 0 .364.27.657.6.657.33 0 .6-.296.6-.657 0-4.696 3.3-8.452 7.33-8.459 4.03.007 7.33 3.763 7.33 8.459 0 .364.27.657.6.657.34 0 .61-.296.61-.657-.01-5.377-3.8-9.771-8.54-9.777z"/>
    </g>
    <g>
      <path fill="#1E4694" fill-opacity=".6" d="M999.823 714.897c.487-.275 1.127-.456 1.907-.55 7.09-.849 22.16-10.607 23.85-11.714.85-.558 1.38-1.532 1.41-2.611.02-.393.27-3.84 4.97-3.84 4.71 0 4.96 3.447 4.98 3.84.04 1.079.57 2.053 1.41 2.611 1.7 1.11 16.77 10.868 23.85 11.714.79.092 1.42.278 1.91.55h-64.287zm32.147-19.775c-5.61 0-5.93 4.36-5.95 4.858-.02.717-.37 1.369-.94 1.741-1.67 1.095-16.57 10.748-23.46 11.571-1.58.188-2.708.738-3.344 1.634l-.139.215-.483.817h68.626l-.48-.817-.14-.218c-.63-.893-1.76-1.443-3.35-1.631-6.88-.823-21.78-10.476-23.46-11.571-.56-.372-.91-1.024-.94-1.741-.02-.498-.33-4.858-5.94-4.858zm-28 16.457c1.52 0 2.76-1.354 2.76-3.02 0-.416-.08-.822-.23-1.202 6.24-2.729 14.06-7.658 15.6-8.64l.18-.115.05-.228c.36-1.76 2.12-7.503 9.64-7.503 7.52 0 9.28 5.743 9.64 7.503l.05.228.18.115c1.54.982 9.36 5.911 15.6 8.64-.15.38-.23.786-.23 1.202 0 1.666 1.24 3.02 2.76 3.02 1.36 0 2.5-1.09 2.72-2.514l.04.005c2.72.325 4.76 1.448 6.06 3.342 1.82 2.647 1.4 5.696 1.34 6.036-.16 1.022-.96 1.76-1.91 1.76h-72.507c-.945 0-1.749-.741-1.911-1.76-.053-.34-.474-3.389 1.344-6.036 1.299-1.891 3.338-3.017 6.054-3.342l.05-.005c.22 1.424 1.36 2.514 2.72 2.514zm28.45-21.761l.03.482-.97.081c-.01-.115-.02-.311-.03-.563-7.52.249-9.53 5.964-10.02 8.095-1.93 1.231-9.76 6.123-15.81 8.679l-.59.252.37.56c.24.343.36.744.36 1.155 0 1.079-.81 1.959-1.79 1.959-.99 0-1.79-.88-1.79-1.938l.04-.78-.75.146-.37.068c-2.997.357-5.26 1.622-6.729 3.756-2.065 3.007-1.586 6.474-1.526 6.859.244 1.532 1.447 2.64 2.866 2.64h72.509c1.42 0 2.62-1.111 2.87-2.64.06-.385.54-3.85-1.53-6.859-1.47-2.134-3.73-3.399-6.72-3.756l-.38-.068-.74-.055.03.668c0 1.079-.8 1.959-1.78 1.959-.99 0-1.79-.88-1.79-1.959 0-.414.12-.812.35-1.155l.38-.56-.6-.252c-6.05-2.553-13.87-7.448-15.81-8.679-.48-2.134-2.51-7.872-10.08-8.095z"/>
      <path fill="#1E4694" fill-opacity=".6" d="M1032.7 676.606c-2.56 0-3.51 2.397-4.01 3.688l-.27.626h-1.18v1.06h1.33c.5 0 .72-.531 1-1.27.48-1.212 1.2-3.046 3.12-3.046 3.48 0 3.52 3.628 3.52 3.782 0 1.04-.8 3.318-3.16 3.318-.32 0-.61.147-.85.425-.79.937-.8 3.422-.75 4.63.01.251.03.448.03.563l.97-.081-.03-.482c-.06-1.454.05-3.384.49-3.908l.14-.081c2.82 0 4.13-2.613 4.13-4.381 0-1.674-.94-4.843-4.48-4.843z"/>
    </g>
    <g>
      <path fill="#1E4694" fill-opacity=".6" d="M489.717 714.908h-14.759v-7.506h14.759v7.506zm-13.515-1.367h12.268v-4.779h-12.268v4.779z"/>
      <path fill="#1E4694" fill-opacity=".6" d="M486.511 708.764h-8.345v-9.76h8.345v9.76zm-7.101-1.364h5.854v-7.034h-5.854v7.034zM496.422 769.311h-19.811c-4.019 0-5.89-3.363-5.89-10.583v-30.461c0-4.808 3.11-8.171 5.84-10.19v-4.533h11.55v3.8c4.539 2.54 14.201 8.82 14.201 16.229v25.152c0 7.223-1.87 10.586-5.89 10.586zm-18.615-54.403v3.9l-.282.202c-2.536 1.812-5.557 4.889-5.557 9.255v30.46c0 9.219 3.253 9.219 4.643 9.219h19.811c1.39 0 4.646 0 4.646-9.219v-25.152c0-7.034-10.607-13.414-13.856-15.205l-.342-.186v-3.274h-9.063z"/>
      <path fill="#1E4694" fill-opacity=".6" d="M493.588 734.257c-2.601 0-6.828-1.414-8.178-3.172-1.418-1.843-1.557-4.245-1.246-5.743.239-1.16.761-1.988 1.467-2.339a3.285 3.285 0 011.461-.324c3.237 0 7.936 4.064 9.137 9.302.155.673-.043 1.134-.235 1.404-.409.581-1.217.872-2.406.872zm-6.496-10.211c-.359 0-.677.068-.95.204-.332.162-.619.686-.765 1.396-.266 1.288-.065 3.198.986 4.562.985 1.281 4.765 2.684 7.225 2.684 1.148 0 1.399-.306 1.423-.34l.01-.233c-1.02-4.457-5.211-8.273-7.929-8.273zM498.743 750.842h-24.452v-12.56h24.452v12.56zm-23.208-1.364h21.962v-9.834h-21.962v9.834z"/>
    </g>
    <g>
      <path fill="#1E4694" fill-opacity=".6" d="M1713.77 636.506h-32.57c-1.82 0-3.31-1.627-3.31-3.625s1.49-3.627 3.31-3.627h26.64c.3 0 .55.27.55.605 0 .332-.25.602-.55.602h-26.64c-1.22 0-2.21 1.084-2.21 2.417 0 1.331.99 2.415 2.21 2.415h32.57c.3 0 .55.27.55.605 0 .335-.25.608-.55.608zM1740.82 636.506h-12.94c-.31 0-.55-.27-.55-.603 0-.335.24-.604.55-.604h12.94c1.21 0 2.2-1.085 2.2-2.415 0-1.333-.99-2.417-2.2-2.417h-16.13c-.31 0-.55-.27-.55-.603 0-.335.24-.605.55-.605h16.13c1.82 0 3.31 1.627 3.31 3.628 0 1.992-1.49 3.619-3.31 3.619z"/>
      <path fill="#1E4694" fill-opacity=".6" d="M1710.97 667.354c-6.21 0-12.43-.013-16.32-.037-9.93-.063-13.83-30.146-13.99-31.429-.05-.33.17-.634.47-.678.3-.045.58.186.62.513.04.306 3.93 30.327 12.91 30.384 7.77.05 24.84.05 32.62 0 8.22-.055 12.17-25.17 12.81-29.693l-12.21.079c-.3 0-.55-.267-.55-.6 0-.335.24-.607.55-.607l12.85-.082.42.207.13.48c-.16 1.283-4.06 31.363-14 31.429-3.88.018-10.1.034-16.31.034z"/>
      <path fill="#1E4694" fill-opacity=".6" d="M1730.47 644.664l-.14-.024c-.06-.016-6.17-1.791-8.83-1.791-2.59 0-5.36 1.715-5.39 1.733l-.52.014-.3-.469c-.01-.126-1.41-12.694-7.53-13.671l-.46-.429.18-.629c.18-.175 4.67-4.311 9.91-4.311 1.27 0 2.49.249 3.61.734 6.55 2.802 9.86 17.47 10 18.094l-.15.576-.38.173zm-8.97-3.023c2.18 0 6.34 1.066 8.19 1.574-.86-3.333-4-14.092-9.08-16.268a8.162 8.162 0 00-3.22-.65c-3.52 0-6.78 2.119-8.3 3.282 5.1 1.964 6.77 10.737 7.18 13.555 1.07-.558 3.17-1.493 5.23-1.493zM1690.45 630.464l-.39-.181v-.853c.21-.231 5.19-5.636 8.74-5.147 1.57.212 2.91.954 4.1 1.606 1.36.749 2.43 1.343 3.34.911l.72.32-.29.793c-1.38.647-2.78-.126-4.27-.945-1.1-.608-2.36-1.299-3.74-1.488-2.51-.343-6.49 3.355-7.82 4.806l-.39.178z"/>
      <path fill="#1E4694" fill-opacity=".6" d="M1717.08 626.297l-.38-.162c-.28-.283-6.9-6.859-15.76-.22l-.77-.157.14-.841c9.61-7.207 17.07.26 17.15.338l.02.851-.4.191zM1683.14 630.464h-.03c-.3-.013-.54-.296-.53-.629.06-1.555.93-4.549 3.83-4.745 3.3-.231 6.84 1.642 6.99 1.721l.25.806-.73.28c-.04-.018-3.45-1.799-6.44-1.602-2.64.18-2.79 3.446-2.79 3.585-.02.327-.26.584-.55.584zM1727.02 630.464l-.16-.024c-.29-.094-.46-.426-.37-.746l.43-1.647-4.05-2.674-.27-.5.24-.514c.16-.12 3.94-2.972 7.68-2.59 3.82.39 7.84 7.472 8.01 7.773l-.18.833-.76-.199c-1.08-1.909-4.46-6.927-7.17-7.202-2.43-.238-4.98 1.105-6.21 1.875l3.64 2.402.25.688-.55 2.09-.53.435z"/>
      <path fill="#1E4694" fill-opacity=".6" d="M1729.5 630.464c-.31-.003-.55-.275-.55-.607.01-1.273.69-3.819 3.21-4.351l2.74-.578c.3-.066.59.152.65.479.05.327-.14.644-.44.707l-2.74.579c-2.27.479-2.32 3.061-2.32 3.171 0 .33-.25.6-.55.6zM1714.83 624.634l-.41-.201.04-.852c4.07-3.993 4.48-3.993 4.69-3.993.41 0 4.69 1.419 8.21 2.613.29.1.46.435.37.755-.09.319-.4.5-.69.4-2.68-.906-7-2.341-7.83-2.543-.52.336-2.39 2.074-4.01 3.669l-.37.152zM1725.21 645.735c-2.22 0-5.28-.275-9.46-1.082-.31-.057-.5-.369-.45-.702.05-.327.34-.552.64-.489 11.81 2.27 14.12.18 14.14.162l.77.021.02.828c-.15.178-1.27 1.262-5.66 1.262z"/>
    </g>
    <g>
      <path fill="#1E4694" fill-opacity=".6" d="M1312.98 734.929v-1.783h32.58v1.783h-32.58zm-1.63-3.567c-.46 0-.82-.398-.82-.89v-34.776H1348v34.776c0 .492-.36.89-.81.89h-35.84zm-.82-37.45v-6.241c0-1.477 1.1-2.673 2.45-2.673h32.58c1.35 0 2.44 1.196 2.44 2.673v6.241h-37.47zm35.03-10.701h-32.58c-2.25.003-4.08 1.996-4.08 4.458v42.8c0 1.478 1.1 2.677 2.45 2.677v2.674c0 .492.36.89.81.89h34.21c.45 0 .82-.4.82-.89v-2.674c1.35 0 2.44-1.199 2.44-2.677v-42.8c0-2.462-1.82-4.455-4.07-4.458z"/>
      <path fill="#1E4694" fill-opacity=".6" d="M1313.79 690.345v-1.783h8.15v1.783h-8.15zm8.96-3.567h-9.77c-.45 0-.82.401-.82.891v3.567c0 .492.36.89.82.89h9.77c.45 0 .81-.4.81-.89v-3.567c0-.49-.36-.891-.81-.891zM1327.64 690.345c-.45 0-.82-.4-.82-.893 0-.492.37-.89.82-.89.45 0 .81.401.81.89 0 .493-.36.893-.81.893zm0-3.567c-1.35 0-2.45 1.197-2.45 2.674 0 1.477 1.1 2.674 2.45 2.674s2.44-1.197 2.44-2.674c0-1.477-1.09-2.674-2.44-2.674zM1334.15 690.345c-.45 0-.81-.4-.81-.893 0-.492.36-.89.81-.89.45 0 .82.401.82.89 0 .493-.37.893-.82.893zm0-3.567c-1.35 0-2.44 1.197-2.44 2.674 0 1.477 1.09 2.674 2.44 2.674 1.35 0 2.45-1.197 2.45-2.674 0-1.477-1.1-2.674-2.45-2.674zM1340.67 688.562h-1.63c-.45 0-.82.401-.82.89 0 .493.37.893.82.893h1.63c.45 0 .81-.4.81-.893 0-.492-.36-.89-.81-.89zM1345.56 688.562h-1.63c-.45 0-.82.401-.82.89 0 .493.37.893.82.893h1.63c.45 0 .81-.4.81-.893 0-.492-.36-.89-.81-.89zM1329.27 726.012c-6.3 0-11.41-5.589-11.41-12.484 0-6.896 5.11-12.482 11.41-12.482 6.29 0 11.4 5.589 11.4 12.482-.01 6.893-5.11 12.476-11.4 12.484zm0-26.749c-7.2 0-13.04 6.387-13.04 14.265 0 7.88 5.84 14.268 13.04 14.268 7.19 0 13.03-6.388 13.03-14.268-.01-7.875-5.84-14.257-13.03-14.265z"/>
      <path fill="#1E4694" fill-opacity=".6" d="M1329.27 723.338c-3.29-.003-6.31-1.969-7.88-5.128a18.025 18.025 0 015.43-1.113c.05-.002.11-.002.16-.002.96 0 1.9.277 2.74.804 1.06.647 2.25.982 3.46.982.05 0 .11 0 .16-.003h.04c1.35 0 2.69-.34 3.9-.998-1.5 3.337-4.61 5.453-8.01 5.458zm0-19.618h.02c4.92 0 8.93 4.368 8.93 9.761.01.73-.06 1.456-.21 2.168-.43.155-.84.333-1.25.534-1.06.6-2.23.912-3.41.912h-.01c-.05.002-.1.002-.15.002-.96 0-1.91-.277-2.75-.806a6.624 6.624 0 00-3.46-.982c-.05 0-.11 0-.16.002-2.07.092-4.12.514-6.07 1.249-1.54-5.14 1.02-10.672 5.72-12.353a8.25 8.25 0 012.78-.484c.01-.003.01-.003.02-.003zm.05-1.783h-.07c-5.83 0-10.57 5.177-10.57 11.567-.01 1.516.26 3.017.79 4.418l.01.053.03.057c1.7 4.426 5.63 7.09 9.76 7.09 1.37 0 2.76-.294 4.1-.912 3.01-1.39 5.27-4.227 6.11-7.684l.01-.044c1.51-6.16-1.82-12.495-7.44-14.147a9.568 9.568 0 00-2.73-.398z"/>
    </g>
    <g>
      <path fill="#1E4694" fill-opacity=".6" d="M595.177 298.574c-1.299 0-2.351-1.153-2.351-2.575 0-1.422 1.052-2.574 2.351-2.574h17.242c1.299 0 2.352 1.152 2.352 2.574s-1.053 2.575-2.352 2.575h-17.242zm29.001-1.213v-3.936h3.593l-3.593 3.936zm-29.001-5.651c-1.299 0-2.351-1.153-2.351-2.575 0-1.422 1.052-2.574 2.351-2.574h17.242c1.299 0 2.352 1.152 2.352 2.574s-1.053 2.575-2.352 2.575h-17.242zm0-6.865c-1.299 0-2.351-1.152-2.351-2.574s1.052-2.574 2.351-2.574h17.242c1.299 0 2.352 1.152 2.352 2.574s-1.053 2.574-2.352 2.574h-17.242zm20.376-20.697c3.967 0 7.254-2.878 7.768-6.599l7.524 1.498 7.113 7.783-5.161 5.649-4.933-5.4-1.107 1.212 2.122 2.323v21.093h-5.486c-.433 0-.782.385-.782.859v6.005h-7.075c1.304-1.851.993-4.507-.698-5.934l-.086-.071c1.732-1.385 2.11-4.044.844-5.94a3.987 3.987 0 00-.844-.924c1.739-1.401 2.11-4.078.832-5.982-.737-1.094-1.907-1.741-3.148-1.741h-10.201v-7.367l2.122-2.323-1.11-1.213-4.931 5.4-5.16-5.649 7.11-7.783 7.524-1.498c.507 3.724 3.797 6.602 7.763 6.602zm-.184-1.712c-2.263 0-4.364-1.313-5.515-3.457l5.699-1.559 5.699 1.559c-1.151 2.144-3.251 3.457-5.512 3.457-.062 0-.125 0-.187-.003-.06 0-.122.003-.184.003zm.189-15.339c-.258 0-.522.029-.787.086-1.823.409-3.134 2.163-3.134 4.203h1.567c0-1.422 1.055-2.574 2.352-2.574 1.299 0 2.351 1.152 2.351 2.574s-1.052 2.575-2.351 2.575c-.434 0-.785.385-.785.856v1.045l-5.419 1.485-.065-.814-.282-.658-.641-.186-8.622 1.716-.416.235-7.835 8.58a.913.913 0 000 1.212l6.27 6.865a.75.75 0 00.553.251.75.75 0 00.555-.251l1.796-1.967v5.649h-5.497c-2.153 0-3.9 1.906-3.907 4.263-.005 1.365.588 2.651 1.591 3.46-1.73 1.383-2.108 4.043-.845 5.94.237.353.522.665.845.924-1.737 1.398-2.11 4.075-.83 5.979.734 1.097 1.904 1.742 3.146 1.742h28.225l.555-.252 6.27-6.864.223-.605h.007V272.33l1.797 1.967a.745.745 0 00.552.251.75.75 0 00.555-.251l6.271-6.865a.915.915 0 000-1.212l-7.838-8.58-.413-.235-8.62-1.716a.673.673 0 00-.139-.013c-.371 0-.701.291-.77.705l-.015.152-.067.814-5.418-1.482v-.275c2.122-.474 3.488-2.74 3.055-5.063-.383-2.029-2.017-3.43-3.84-3.43z"/>
      <path fill="#1E4694" fill-opacity=".6" d="M613.204 281.415h-18.809v1.715h18.809v-1.715zM612.421 288.279h-18.026v1.713h18.026v-1.713zM612.421 295.141h-18.026v1.715h18.026v-1.715z"/>
    </g>
    <path fill="#1E4694" fill-opacity=".6" d="M85.829 350.8l-5.206-5.699 1.301-1.425 5.204 5.699-1.3 1.425zm-6.507-7.124l-4.682-5.125 6.342-1.603 12 13.137-3.904 4.274-1.953-2.137 1.953-2.137a1.078 1.078 0 000-1.425l-6.508-7.121a.88.88 0 00-.65-.296c-.235 0-.472.1-.651.296l-1.948 2.137zm1.952-8.841a.793.793 0 00-.206.026l-8.457 2.137c-.326.081-.586.354-.677.705-.093.351-.003.73.232.99l16.266 17.806c.18.196.413.293.65.293a.88.88 0 00.651-.293l5.203-5.699a1.072 1.072 0 000-1.425l-13.01-14.244a.891.891 0 00-.652-.296zM85.178 356.203a.88.88 0 00-.65.296 1.076 1.076 0 000 1.424l1.3 1.425c.18.196.417.296.651.296.235 0 .472-.1.651-.296a1.078 1.078 0 000-1.425l-1.301-1.424a.873.873 0 00-.651-.296zM81.274 351.929a.88.88 0 00-.651.296 1.074 1.074 0 000 1.422l1.301 1.424c.18.197.414.294.651.294a.878.878 0 00.65-.294 1.076 1.076 0 000-1.424l-1.3-1.422a.88.88 0 00-.651-.296z"/>
    <path fill="#1E4694" fill-opacity=".6" d="M83.877 368.603l-31.118-34.064a2.55 2.55 0 011.189-.293c.718 0 1.423.306 1.955.885l29.277 32.05-1.303 1.422zm5.854-30.622l-2.603-2.85 1.301-1.422 2.6 2.847-1.298 1.425zm-5.49 25.324l-25.183-27.566a53.695 53.695 0 008.342-3.14c3.354-1.49 6.201-2.753 8.85-2.753 2.181 0 4.232.857 6.325 3.148l17.182 18.807-2.914 10.844-12.603.66zM76.3 327.827c-3.048 0-6.194 1.399-9.593 2.907a46.283 46.283 0 01-9.202 3.305l-.303-.33c-.898-.982-2.075-1.472-3.252-1.472-1.177 0-2.354.49-3.253 1.472a1.068 1.068 0 000 1.422l32.529 35.609c.18.197.414.296.65.296a.88.88 0 00.651-.296l2.603-2.846a1.078 1.078 0 000-1.425L86 365.23l11.586-.605c.392-.018.727-.309.837-.723l2.249-8.359a3.452 3.452 0 002.079.707c.947 0 1.888-.398 2.598-1.176l1.302-1.425c.358-.392.83-.589 1.301-.589s.943.197 1.302.589a.874.874 0 00.65.296.879.879 0 00.651-.296 1.073 1.073 0 000-1.422c-.72-.785-1.66-1.178-2.603-1.178-.943 0-1.883.393-2.603 1.178l-1.301 1.422c-.359.393-.83.59-1.302.59-.471 0-.942-.197-1.301-.59l-.206-.225.438-1.626a1.065 1.065 0 00-.232-.995l-10.41-11.395 1.953-2.137a1.072 1.072 0 000-1.425l-3.905-4.274a.88.88 0 00-.65-.296c-.235 0-.472.1-.651.296l-1.952 2.137-1.952-2.137c-2.515-2.752-5.01-3.745-7.577-3.745zM61.106 349.792a.877.877 0 00-.65.293c-.08.086-.159.128-.326.128-.117 0-.28-.021-.517-.057a2.162 2.162 0 00-.725-.124c-.622 0-1.23.268-1.684.763-.63.691-.854 1.707-.586 2.634.084.629.072.775-.065.927-.079.087-.16.129-.33.129-.12 0-.28-.019-.517-.055a2.156 2.156 0 00-.722-.123c-.622 0-1.232.267-1.684.764-.63.689-.857 1.705-.586 2.635.08.628.069.778-.065.927a1.072 1.072 0 000 1.425c.18.196.414.293.65.293a.88.88 0 00.651-.293 3.018 3.018 0 00.587-2.635c-.084-.631-.072-.778.064-.927.081-.089.16-.128.33-.128.12 0 .28.021.517.057.237.081.48.123.72.123.622 0 1.232-.267 1.684-.764.632-.689.857-1.705.587-2.635-.082-.629-.072-.778.064-.927.081-.087.16-.128.328-.128.117 0 .28.02.519.057.222.066.447.097.672.097.634 0 1.256-.257 1.735-.738a1.072 1.072 0 000-1.425.891.891 0 00-.651-.293zM65.659 354.778a.88.88 0 00-.651.293c-.079.087-.16.129-.328.129-.117 0-.28-.021-.517-.058a2.156 2.156 0 00-.722-.123c-.622 0-1.23.267-1.682.762-.632.689-.854 1.707-.586 2.635.081.628.072.775-.065.924-.081.089-.16.131-.33.131-.12 0-.28-.021-.517-.058a2.235 2.235 0 00-.722-.123c-.622 0-1.232.267-1.687.765-.629.689-.856 1.705-.588 2.635.084.628.072.777-.067.927a1.076 1.076 0 000 1.424.88.88 0 00.65.296.88.88 0 00.651-.296c.594-.709.814-1.705.589-2.634-.084-.629-.072-.778.064-.927.082-.087.16-.129.33-.129.118 0 .28.019.517.058.237.084.481.123.723.123.622 0 1.232-.267 1.686-.765.63-.688.855-1.705.587-2.634-.082-.629-.072-.776.064-.925.081-.086.16-.128.328-.128.12 0 .28.021.52.057.222.066.446.097.669.097.634 0 1.256-.256 1.734-.736a1.076 1.076 0 000-1.424.876.876 0 00-.65-.296zM70.214 359.762a.88.88 0 00-.651.296c-.079.086-.16.125-.328.125-.117 0-.28-.021-.516-.057a2.235 2.235 0 00-.723-.123c-.622 0-1.232.267-1.684.764-.63.689-.854 1.708-.584 2.635.081.629.072.778-.065.924-.08.089-.16.129-.327.129a3.73 3.73 0 01-.517-.058 2.235 2.235 0 00-.723-.123c-.622 0-1.232.267-1.684.765-.631.691-.856 1.707-.588 2.637.081.629.071.778-.067.927a1.078 1.078 0 000 1.425.88.88 0 00.65.293.88.88 0 00.651-.293c.593-.713.813-1.705.586-2.635-.081-.628-.072-.778.065-.927.081-.089.16-.128.328-.128.12 0 .28.021.519.057.237.082.48.123.722.123.622 0 1.232-.267 1.687-.764.629-.689.854-1.705.584-2.635-.082-.628-.07-.775.064-.924.08-.089.158-.129.326-.129.117 0 .28.021.519.058.222.065.447.097.672.097.634 0 1.254-.257 1.734-.739a1.068 1.068 0 000-1.422.875.875 0 00-.65-.298zM246.398 79.367l-.311-.333-.007-4.963c3.205 1.451 7.935 1.922 12.909 2.187l.002 2.752-.306.338-12.287.019zm-1.072-6.917l.27-.498-.27.498zm35.412 7.425c-4.644-.003-7.732-1.313-10.649-2.695-2.906-1.383-5.65-2.868-9.428-3.036l-1.134-.052c-5.098-.233-10.981-.76-13.701-2.561-1.077-.718-1.603-1.504-1.608-2.533v-.295c-.014-3.934.213-8.381 1.321-10.822 3.713 3.043 10.093 5.405 15.823 7.097 5.983 1.758 11.204 2.75 11.694 2.842l.627.115.67.126-.347-3.83c.15-1.023.722-3.548 1.849-4.467l.325-.123c.194.008.577.217 1.046.707 1.512 1.522 3.579 5.041 6.368 6.896 3.472 2.3 6.328 2.8 9.91 2.8h.155c.505-.003 1.029-.011 1.572-.024l.39-.008h.024c2.012 0 3.488.437 4.418 1.108.831.61 1.233 1.367 1.321 2.289-.316.172-.856.466-1.634.856-3.689 1.872-12.005 5.604-18.969 5.607h-.043v.003zm-7.55-13.179c-.587-.11-5.704-1.09-11.558-2.812-5.727-1.676-12.137-4.099-15.572-6.985l.682-.354.081.006c2.017.29 7.003 2.244 12.208 4.23 5.223 1.982 10.694 4.003 14.027 4.464l.132 1.451zM246.74 55.414c-.835.01-1.366.655-1.495.736l.102.152-.119-.11-.311.545c-1.574 2.78-1.718 7.676-1.732 11.963v.3-.004c-.005 1.416.763 2.514 1.859 3.305l.012 6.728c0 .809.6 1.466 1.342 1.466v-.565l.002.565 12.287-.02c.742-.003 1.34-.66 1.342-1.47l-.004-3.292v-.471l.595.029c3.541.157 6.113 1.537 9.058 2.943 2.933 1.396 6.227 2.79 11.038 2.79h.063c9.701-.032 21.359-6.76 21.394-6.77l.278-.16-.002-.343c.007-1.438-.644-2.727-1.823-3.562-1.177-.843-2.847-1.291-4.998-1.294h-.031l-.392.008c-.544.013-1.06.024-1.556.024h-.078c-3.548-.008-6.106-.438-9.45-2.638-1.67-1.094-3.144-2.975-4.412-4.609-.636-.817-1.222-1.571-1.785-2.145-.564-.563-1.105-1.008-1.794-1.026h-.086l-.629.24-.077.027-.062.052c-1.639 1.383-2.12 4.18-2.299 5.275-3.156-.48-8.517-2.436-13.61-4.377-5.228-1.985-10.137-3.938-12.409-4.282l-.218-.01zM250.017 381.14l.052.018-.052-.018z"/>
    <g>
      <path fill="#1E4694" fill-opacity=".6" d="M450.407 362.064l-.012.063.012-.063zm-18.966-13.66c.65-.393 1.299-.571 1.969-.574.464 0 .937.089 1.428.265.947.343 1.665 1.008 2.218 1.974l.105.183.562.275.201.1.215-.058a9.715 9.715 0 012.453-.33l.545.016c.718.045 1.397.115 2.019.32l.215.07.546-.238.206-.089.115-.207c.715-1.291 1.677-1.998 3.023-2.216l.625-.049c1.811.002 3.39 1.22 4 3.197.139.459.206.935.206 1.409.002 1.373-.572 2.729-1.577 3.604l-.002.003-.251.246-.213.605.098.51c.282.941.418 1.889.418 2.845 0 .591-.052 1.189-.158 1.791-.289 1.673-.937 3.148-1.959 4.444l-.007.008-.127.175-.773 1.058 1.429.116.024.002h.023c1.127 0 2.254.003 3.383.003.888 0 1.775-.003 2.665-.01h.043c.608 0 1.118.091 1.594.364 1.033.607 1.572 1.697 1.576 2.817a3.362 3.362 0 01-.832 2.224l-.003.003c-.559.639-1.203.932-2.024.945-.59.003-1.186.005-1.779.005l-2.855-.002h-.98v1.018c.002 2.339.007 4.678.007 7.019 0 1.713-.007 3.431-.007 5.151 0 .762 0 1.527.004 2.292v.042c0 .678-.043 1.27-.222 1.82-.543 1.645-1.948 2.669-3.452 2.671-.378 0-.761-.065-1.144-.201-1.289-.48-2.043-1.357-2.414-2.787-.112-.437-.115-1.008-.143-1.637v-.002l-.012-.556c0-.314.007-.641.007-.984v-.715h-.651l-1.222.002c-.302 0-.596 0-.893-.002l-.313-.003-.347.466-.146.197v.254c.002.379.002.757.002 1.134l-.002.73c-.021 1.472-.529 2.525-1.608 3.4a3.326 3.326 0 01-2.064.704 3.404 3.404 0 01-2.017-.652c-1.151-.867-1.658-1.933-1.679-3.454v-.003c-.005-1.244-.01-2.49-.01-3.74l.002-4.989v-.002c-.002-2.064-.002-4.128-.007-6.194v-.977h-1.756l-2.052-.002c-.553 0-1.108.002-1.661.01l-.04.003c-1.553-.003-2.843-1.271-2.943-2.934l-.007-.24c.002-1.703 1.117-2.957 2.471-3.138a8.677 8.677 0 011.091-.055l.682.003h.062c1.117-.006 2.232-.005 3.349-.005h1.713l.134-.016 1.141-.142-.837-1.196-.005-.008-.007-.011c-.899-1.21-1.543-2.527-1.856-4.022a10.552 10.552 0 01-.23-2.172c0-1.005.148-2 .457-2.993l.065-.209-.151-.584-.055-.218-.158-.141c-1.134-1.027-1.648-2.171-1.656-3.586 0-.335.032-.686.096-1.052v-.003c.247-1.396.945-2.38 2.12-3.095l.019-.011-.019.011zm1.959-1.999c-.885 0-1.765.249-2.591.749-1.452.862-2.466 2.271-2.773 4.081a7.66 7.66 0 00-.119 1.322c-.007 1.752.706 3.308 1.966 4.507l.003.016a11.647 11.647 0 00-.469 3.208c0 .83.088 1.663.265 2.491.283 1.348.852 2.54 1.541 3.65h-.555c-1.117 0-2.234 0-3.354.003h-.06l-.682-.003a9.68 9.68 0 00-1.244.063c-2.002.254-3.624 2.137-3.622 4.555l.012.337c.153 2.441 2.034 4.261 4.239 4.261h.063c.545-.007 1.093-.01 1.643-.01.682 0 1.366.003 2.053.003H430.168c.005 1.911.007 3.828.007 5.74l-.002 4.989c0 1.249.002 2.499.009 3.748-.007 1.909.778 3.564 2.256 4.63.819.6 1.783.893 2.744.893.996 0 1.998-.314 2.828-.974 1.376-1.074 2.149-2.674 2.146-4.547l.003-.738-.003-.621h.957l-.002.273.014.633v-.002c.031.568.014 1.233.189 1.938l.086.343-.064-.257c.459 1.786 1.612 3.109 3.241 3.68a4.545 4.545 0 001.551.272c2.047.003 3.945-1.399 4.679-3.614v-.003c.258-.791.297-1.568.297-2.302v-.047a579.38 579.38 0 01-.005-2.286c0-1.716.007-3.434.007-5.152 0-2.205-.002-4.407-.005-6.607.842 0 1.687.003 2.534.003.595 0 1.191 0 1.787-.003 1.131-.003 2.179-.479 2.964-1.388a4.875 4.875 0 001.191-3.208c.003-1.627-.806-3.227-2.268-4.08l-.002-.003c-.722-.416-1.476-.529-2.201-.529h-.055c-.885.008-1.768.01-2.653.01l-2.361-.002c.784-1.247 1.39-2.598 1.65-4.109a11.371 11.371 0 00-.28-5.238c1.268-1.16 1.986-2.87 1.989-4.63 0-.624-.089-1.252-.276-1.86-.77-2.537-2.866-4.174-5.222-4.174h-.012l-.806.063c-1.613.238-2.929 1.191-3.807 2.668-.703-.193-1.399-.275-2.062-.319l-.619-.019c-.847 0-1.678.137-2.496.333l-.107-.05c-.67-1.081-1.575-1.94-2.747-2.359a5.413 5.413 0 00-1.835-.336c0 .008-.005.008-.007.008z"/>
      <path fill="#1E4694" fill-opacity=".6" d="M447.857 349.622c-.856 0-1.672.458-2.127 1.233a10.719 10.719 0 013.859 3.706c.661-.503 1.017-1.71.814-2.721-.223-1.121-1.055-1.985-2.098-2.177a2.592 2.592 0 00-.448-.041zM433.393 349.616c-.11 0-.223.008-.335.026-1.029.163-1.94 1.098-2.17 2.268-.22 1.108.28 2.232.821 2.645.983-1.592 2.284-2.794 3.849-3.695-.323-.636-1.213-1.244-2.165-1.244zM440.068 361.54c-.256 0-.512 0-.766.003-.34.002-.605.173-.734.529-.134.364-.046.678.21.95.321.341.613.718.959 1.027.352.319.512.673.462 1.178-.038.396-.009.797-.009 1.221l-.24-.034c-.636-.123-1.186-.445-1.655-.93l-.402-.136-.086.649c.624.681 1.38 1.074 2.249 1.182.167.021.332.031.493.031 1.047 0 1.968-.427 2.753-1.26l-.146-.602-.397.154c-.519.543-1.143.831-1.899.946 0-.642-.003-1.249.004-1.854l.074-.142c.467-.508.945-1.003 1.405-1.516a.827.827 0 00.158-.867c-.115-.314-.335-.513-.651-.518-.598-.008-1.189-.011-1.782-.011zM436.68 357.332l-.478-.53.497-.542.479.54-.498.532zm-.055-2.198c-.77 0-1.45.778-1.447 1.655.002.891.672 1.663 1.44 1.671h.014c.912 0 1.572-.707 1.572-1.689 0-.922-.687-1.637-1.574-1.637h-.005zM444.568 357.357h-.015l-.485-.57a.552.552 0 01.543-.55h.005l.478.56c-.007.322-.23.56-.526.56zm-.019-2.226h-.024c-.787.016-1.46.786-1.457 1.663.004.893.689 1.669 1.471 1.669h.019c.895-.011 1.548-.731 1.541-1.692-.012-.919-.696-1.64-1.55-1.64z"/>
    </g>
    <g>
      <path fill="#1E4694" fill-opacity=".6" d="M172.024 259.086l3.847-29.371h35.84l3.849 29.371h-43.536zm40.818-30.795H174.739l-4.22 32.222h46.543l-4.22-32.222zM193.792 217.147c-4.737.005-8.527 4.4-8.534 9.776 0 .364.268.658.601.658.332 0 .6-.294.6-.658.003-4.695 3.306-8.451 7.333-8.459 4.024.008 7.33 3.761 7.332 8.459 0 .364.271.658.601.658.332 0 .6-.294.6-.658-.007-5.376-3.796-9.771-8.533-9.776z"/>
    </g>
    <g>
      <path fill="#1E4694" fill-opacity=".6" d="M1227.58 330.236c.48-.275 1.12-.455 1.9-.55 7.09-.846 22.16-10.604 23.85-11.714.85-.555 1.38-1.532 1.42-2.611.01-.393.27-3.839 4.97-3.839 4.7 0 4.96 3.443 4.97 3.839.04 1.079.57 2.053 1.42 2.611 1.69 1.11 16.76 10.868 23.85 11.714.78.095 1.42.281 1.9.55h-64.28zm32.14-19.778c-5.61 0-5.93 4.363-5.95 4.861-.02.72-.37 1.372-.94 1.742-1.67 1.097-16.57 10.748-23.46 11.573-1.58.188-2.71.738-3.35 1.634l-.13.214-.49.818h68.63l-.48-.818-.14-.217c-.64-.893-1.76-1.443-3.35-1.631-6.88-.823-21.78-10.476-23.46-11.573-.56-.37-.91-1.022-.94-1.742-.02-.495-.33-4.861-5.94-4.861zm-28 16.46c1.52 0 2.76-1.354 2.76-3.019 0-.419-.08-.825-.23-1.203 6.24-2.728 14.06-7.657 15.6-8.642l.18-.115.05-.225c.36-1.76 2.12-7.503 9.64-7.503 7.52 0 9.28 5.743 9.64 7.503l.05.225.18.115c1.54.985 9.36 5.914 15.6 8.642-.15.378-.23.784-.23 1.203 0 1.665 1.24 3.019 2.76 3.019 1.36 0 2.5-1.089 2.72-2.514l.04.005c2.72.325 4.76 1.448 6.06 3.339 1.82 2.648 1.4 5.699 1.34 6.037-.16 1.021-.96 1.762-1.91 1.762h-72.51c-.94 0-1.75-.741-1.91-1.762-.05-.341-.47-3.389 1.35-6.037 1.29-1.891 3.33-3.017 6.05-3.339l.05-.005c.22 1.425 1.36 2.514 2.72 2.514zm28.45-21.76l.03.482-.97.083a13.99 13.99 0 01-.03-.565c-7.52.249-9.53 5.966-10.02 8.095-1.93 1.231-9.76 6.123-15.81 8.679l-.59.251.37.561a2 2 0 01.36 1.155c0 1.079-.8 1.959-1.79 1.959s-1.79-.88-1.79-1.938l.04-.781-.75.147-.37.068c-3 .356-5.26 1.621-6.73 3.755-2.06 3.007-1.58 6.474-1.52 6.859.24 1.532 1.44 2.64 2.86 2.64h72.51c1.42 0 2.63-1.108 2.87-2.64.06-.385.54-3.85-1.53-6.859-1.46-2.134-3.73-3.399-6.72-3.755l-.38-.068-.73-.055.03.668c0 1.079-.81 1.959-1.79 1.959-.99 0-1.79-.88-1.79-1.959 0-.414.12-.812.35-1.155l.38-.561-.6-.251c-6.04-2.554-13.87-7.448-15.8-8.679-.49-2.135-2.52-7.873-10.09-8.095z"/>
      <path fill="#1E4694" fill-opacity=".6" d="M1260.45 291.945c-2.56 0-3.51 2.397-4.02 3.685l-.26.626h-1.18v1.063h1.33c.5 0 .71-.534 1-1.27.48-1.212 1.2-3.046 3.12-3.046 3.48 0 3.52 3.628 3.52 3.782 0 1.04-.8 3.318-3.16 3.318-.32 0-.61.147-.85.424-.79.938-.8 3.421-.75 4.631.01.251.03.447.03.565l.97-.083-.03-.482c-.06-1.454.05-3.381.49-3.908l.14-.081c2.82 0 4.13-2.614 4.13-4.381 0-1.674-.94-4.843-4.48-4.843z"/>
    </g>
    <g>
      <path fill="#1E4694" fill-opacity=".6" d="M1577.34 164.675c2.15-11.911 16.82-21.567 21.15-21.567h20.47l1.93 14.881c-4.37.351-7.49 5.513-8.14 6.686h-35.41zm42.33-22.46h-21.18c-4.52 0-19.86 10.073-21.98 22.463h.34v.893h-.48 36.85l.12-.226c.03-.065 3.4-6.479 8.01-6.479h.47l-1.31-10.13h-.47v-.895h.35l-.34-2.661h-.47v-.893h.35l-.26-2.072z"/>
      <path fill="#1E4694" fill-opacity=".6" d="M1598.96 154.351c.19-1.37.94-5.209 3.17-6.304 1.06-.529 3.04-.866 5.02-.866 2.79 0 4.95.646 5.78 1.728.34.448.46.961.37 1.571-.27 1.661-4.1 3.874-5.01 3.874h-.27v.893h-6v-.893h-3.06v-.003zm8.19-8.069c-2.09 0-4.19.372-5.36.946-3.14 1.547-3.69 7.28-3.71 7.524l-.04.49h10.25c1.1 0 5.44-2.289 5.81-4.612.14-.875-.05-1.65-.55-2.302-1.42-1.844-4.94-2.046-6.4-2.046z"/>
      <path fill="#1E4694" fill-opacity=".6" d="M1602.84 154.351v-1.445h4.36v1.445h-4.36zm5.18-2.338h-6v3.231h6v-3.231zM1576.85 164.675h-2.66v2.907h39.55v-.896h-38.73v-1.118h1.84v-.893zM1621.76 144.287h-2.18v.893h1.37v2.66h-.91v.896h1.72v-1.922a25.9 25.9 0 00-.42-.016l.03-.893c.01 0 .15.005.39.016v-1.634"/>
      <path fill="#1E4694" fill-opacity=".6" d="M1621.37 145.905l-.03.893.42.016c1.11.039 4.09.144 5.51.144 1.56 0 1.71.327 1.71 1.852v10.803h.81V148.81c0-2.103-.59-2.745-2.52-2.745-1.42 0-4.43-.105-5.51-.144-.24-.011-.39-.016-.39-.016z"/>
    </g>
    <g>
      <path fill="#1E4694" fill-opacity=".6" d="M947.067 409.82h-14.759v-7.506h14.759v7.506zm-13.515-1.365h12.268v-4.779h-12.268v4.779z"/>
      <path fill="#1E4694" fill-opacity=".6" d="M943.861 403.676h-8.345v-9.761h8.345v9.761zm-7.101-1.362h5.855v-7.034h-5.855v7.034zM953.773 464.222h-19.812c-4.019 0-5.89-3.363-5.89-10.586v-30.46c0-4.808 3.11-8.168 5.84-10.19v-4.531h11.55v3.8c4.539 2.54 14.202 8.823 14.202 16.232v25.152c0 7.22-1.871 10.583-5.89 10.583zm-18.615-54.402v3.902l-.283.201c-2.536 1.813-5.557 4.89-5.557 9.253v30.46c0 9.221 3.253 9.221 4.643 9.221h19.812c1.39 0 4.646 0 4.646-9.221v-25.152c0-7.034-10.608-13.414-13.857-15.205l-.342-.186v-3.276h-9.062v.003z"/>
      <path fill="#1E4694" fill-opacity=".6" d="M950.94 429.168c-2.601 0-6.828-1.411-8.177-3.169-1.419-1.843-1.558-4.245-1.247-5.743.24-1.16.761-1.988 1.467-2.338a3.273 3.273 0 011.462-.325c3.237 0 7.935 4.064 9.136 9.302.155.673-.043 1.134-.234 1.404-.412.578-1.221.869-2.407.869zm-6.498-10.211c-.359 0-.677.068-.949.204-.333.163-.62.687-.766 1.396-.266 1.289-.067 3.198.986 4.562.985 1.281 4.765 2.685 7.224 2.685 1.149 0 1.4-.307 1.424-.341l.009-.233c-1.019-4.454-5.21-8.273-7.928-8.273zM956.093 445.756h-24.452v-12.56h24.452v12.56zm-23.208-1.367h21.962v-9.834h-21.962v9.834z"/>
    </g>
    <g>
      <path fill="#1E4694" fill-opacity=".6" d="M651.429 599.504h-32.562c-1.826 0-3.312-1.627-3.312-3.627 0-1.999 1.486-3.625 3.312-3.625h26.634c.306 0 .55.27.55.605 0 .333-.246.602-.55.602h-26.634c-1.218 0-2.206 1.085-2.206 2.415 0 1.333.99 2.417 2.206 2.417h32.562c.306 0 .553.27.553.605 0 .335-.247.608-.553.608zM678.48 599.504h-12.936c-.306 0-.553-.27-.553-.603 0-.335.247-.605.553-.605h12.936c1.217 0 2.208-1.084 2.208-2.417 0-1.333-.991-2.414-2.208-2.414h-16.127c-.304 0-.551-.27-.551-.603 0-.335.247-.605.551-.605h16.127c1.825 0 3.313 1.627 3.313 3.625-.002 1.995-1.488 3.622-3.313 3.622z"/>
      <path fill="#1E4694" fill-opacity=".6" d="M648.632 630.351c-6.213 0-12.428-.015-16.318-.036-9.931-.063-13.833-30.146-13.993-31.43-.043-.33.17-.633.471-.678.307-.044.579.186.622.513.039.307 3.926 30.327 12.907 30.385 7.775.049 24.847.049 32.623 0 8.217-.055 12.167-25.17 12.811-29.693l-12.209.078h-.002c-.304 0-.55-.267-.553-.599-.002-.335.244-.608.551-.608l12.854-.081h.002l.414.204.132.482c-.161 1.283-4.063 31.364-13.996 31.429-3.887.019-10.1.034-16.316.034z"/>
      <path fill="#1E4694" fill-opacity=".6" d="M668.13 607.661l-.143-.023c-.062-.019-6.173-1.792-8.828-1.792-2.584 0-5.357 1.716-5.383 1.734l-.524.013-.299-.469c-.014-.125-1.409-12.693-7.536-13.67l-.452-.43.172-.628c.189-.176 4.67-4.311 9.917-4.311 1.265 0 2.483.249 3.612.733 6.541 2.803 9.859 17.471 9.995 18.094l-.15.576-.381.173zm-8.969-3.022c2.182 0 6.34 1.069 8.192 1.577-.861-3.334-3.996-14.093-9.084-16.269a8.12 8.12 0 00-3.213-.65c-3.526 0-6.78 2.119-8.302 3.282 5.096 1.964 6.773 10.738 7.185 13.553 1.064-.558 3.158-1.493 5.222-1.493zM628.111 593.462l-.393-.181.003-.853c.21-.231 5.189-5.636 8.737-5.147 1.576.212 2.918.954 4.103 1.606 1.358.746 2.43 1.343 3.339.911l.723.32-.287.793c-1.381.647-2.785-.126-4.271-.945-1.105-.608-2.359-1.299-3.744-1.488-2.505-.343-6.493 3.355-7.823 4.806l-.387.178z"/>
      <path fill="#1E4694" fill-opacity=".6" d="M654.745 589.295l-.378-.162c-.28-.283-6.907-6.862-15.766-.22l-.768-.157.144-.841c9.61-7.207 17.067.259 17.144.338l.023.851-.399.191zM620.8 593.462h-.022c-.304-.013-.543-.296-.531-.629.055-1.555.926-4.549 3.83-4.745 3.295-.23 6.833 1.642 6.984 1.721l.256.806-.737.28c-.034-.018-3.443-1.799-6.433-1.602-2.646.18-2.79 3.446-2.795 3.585-.014.327-.258.584-.552.584zM664.681 593.462l-.154-.024c-.291-.094-.461-.427-.378-.746l.436-1.648-4.053-2.674-.265-.5.234-.513c.16-.12 3.94-2.972 7.682-2.593 3.818.39 7.837 7.475 8.007 7.776l-.179.83-.761-.196c-1.072-1.91-4.457-6.927-7.17-7.202-2.431-.239-4.981 1.105-6.203 1.875l3.641 2.401.246.689-.55 2.09-.533.435z"/>
      <path fill="#1E4694" fill-opacity=".6" d="M667.164 593.462h-.005c-.304-.003-.55-.275-.548-.608.007-1.272.689-3.821 3.208-4.35l2.742-.578c.301-.066.588.152.646.479.057.327-.139.644-.438.707l-2.739.579c-2.271.479-2.314 3.061-2.314 3.171-.002.33-.248.6-.552.6zM652.496 587.632l-.411-.201.043-.852c4.062-3.996 4.471-3.996 4.689-3.996.411 0 4.691 1.422 8.208 2.616.292.1.455.435.366.754-.091.32-.397.501-.691.401-2.675-.906-6.996-2.341-7.821-2.543-.522.335-2.395 2.074-4.012 3.669l-.371.152zM662.867 608.733c-2.218 0-5.273-.275-9.459-1.079-.302-.058-.5-.369-.448-.702.053-.327.338-.553.637-.49 11.816 2.271 14.127.181 14.148.163l.771.021.016.827c-.153.176-1.265 1.26-5.665 1.26z"/>
    </g>
    <g>
      <path fill="#1E4694" fill-opacity=".6" d="M403.991 140.586V138.8h32.581v1.786h-32.581zm-1.63-3.569c-.452 0-.815-.401-.815-.893v-34.777h37.469v34.777c0 .492-.364.893-.813.893h-35.841zm-.815-37.45v-6.241c0-1.477 1.095-2.674 2.445-2.674h32.581c1.35 0 2.443 1.197 2.443 2.674v6.24h-37.469zm35.026-10.699h-32.581c-2.249.003-4.072 1.996-4.075 4.458v42.8c0 1.477 1.096 2.674 2.445 2.674v2.674c0 .492.364.893.814.893h34.213c.45 0 .814-.401.814-.893V138.8c1.349 0 2.442-1.197 2.442-2.674v-42.8c-.002-2.462-1.823-4.458-4.072-4.458z"/>
      <path fill="#1E4694" fill-opacity=".6" d="M404.804 96v-1.784h8.146v1.783h-8.146zm8.96-3.565h-9.773c-.45 0-.816.4-.816.89v3.567c0 .493.364.89.816.89h9.773c.449 0 .813-.4.813-.89v-3.566c.002-.493-.364-.89-.813-.89zM418.651 96c-.45 0-.813-.401-.813-.894 0-.492.366-.89.813-.89.452 0 .816.4.816.89 0 .495-.366.893-.816.893zm0-3.565c-1.349 0-2.442 1.197-2.442 2.674 0 1.477 1.095 2.674 2.442 2.674 1.349 0 2.445-1.197 2.445-2.674 0-1.477-1.096-2.674-2.445-2.674zM425.168 96c-.45 0-.813-.401-.813-.894 0-.492.363-.89.813-.89.45 0 .816.4.816.89 0 .495-.366.893-.816.893zm0-3.565c-1.349 0-2.443 1.197-2.443 2.674 0 1.477 1.094 2.674 2.443 2.674s2.443-1.197 2.443-2.674c0-1.477-1.094-2.674-2.443-2.674zM431.682 94.216h-1.629c-.45 0-.816.4-.816.89 0 .493.366.893.816.893h1.629c.45 0 .814-.4.814-.893.002-.49-.364-.89-.814-.89zM436.572 94.216h-1.631c-.45 0-.814.4-.814.89 0 .493.364.893.814.893h1.631c.45 0 .814-.4.814-.893 0-.49-.364-.89-.814-.89zM420.28 131.666c-6.296 0-11.402-5.588-11.402-12.484 0-6.895 5.106-12.482 11.402-12.482 6.297 0 11.405 5.589 11.405 12.482-.007 6.893-5.11 12.479-11.405 12.484zm0-26.749c-7.196 0-13.031 6.387-13.031 14.265 0 7.88 5.835 14.268 13.031 14.268 7.199 0 13.034-6.388 13.034-14.268-.01-7.875-5.837-14.255-13.034-14.265z"/>
      <path fill="#1E4694" fill-opacity=".6" d="M420.28 128.992c-3.282-.002-6.304-1.969-7.871-5.128a17.969 17.969 0 015.429-1.113c.048-.002.098-.002.146-.002.964 0 1.911.277 2.748.804a6.637 6.637 0 003.465.985c.052 0 .105 0 .16-.003h.041a8.173 8.173 0 003.902-.998c-1.51 3.337-4.618 5.45-8.02 5.455zm0-19.615h.024c4.926 0 8.926 4.365 8.936 9.76.002.731-.07 1.456-.218 2.169-.423.154-.842.332-1.249.534a6.88 6.88 0 01-3.402.909h-.017c-.05.002-.102.002-.153.002a5.127 5.127 0 01-2.741-.804 6.642 6.642 0 00-3.464-.982c-.053 0-.106 0-.161.003a19.728 19.728 0 00-6.072 1.249c-1.535-5.141 1.029-10.672 5.728-12.356a8.283 8.283 0 012.775-.484h.014zm.055-1.784h-.067c-5.835 0-10.569 5.178-10.576 11.568-.003 1.516.27 3.017.794 4.418l.007.052.029.055c1.703 4.426 5.629 7.09 9.758 7.09a9.772 9.772 0 004.103-.912c3.015-1.39 5.271-4.227 6.115-7.683l.01-.045c1.512-6.16-1.821-12.495-7.448-14.15a9.738 9.738 0 00-2.725-.393z"/>
    </g>
    <g>
      <path fill="#1E4694" fill-opacity=".6" d="M1686.59 388.185c-1.3 0-2.36-1.153-2.36-2.575 0-1.422 1.06-2.574 2.36-2.574h17.24c1.3 0 2.35 1.152 2.35 2.574s-1.05 2.575-2.35 2.575h-17.24zm28.99-1.213v-3.936h3.6l-3.6 3.936zm-28.99-5.652c-1.3 0-2.36-1.152-2.36-2.574s1.06-2.574 2.36-2.574h17.24c1.3 0 2.35 1.152 2.35 2.574s-1.05 2.574-2.35 2.574h-17.24zm0-6.864c-1.3 0-2.36-1.152-2.36-2.574s1.06-2.574 2.36-2.574h17.24c1.3 0 2.35 1.152 2.35 2.574s-1.05 2.574-2.35 2.574h-17.24zm20.37-20.697c3.97 0 7.26-2.878 7.77-6.599l7.52 1.498 7.12 7.783-5.16 5.652-4.94-5.401-1.1 1.213 2.12 2.323v21.092h-5.49c-.43 0-.78.385-.78.857v6.005h-7.08c1.31-1.849 1-4.507-.69-5.934l-.09-.074c1.73-1.383 2.11-4.043.84-5.937a3.76 3.76 0 00-.84-.924c1.74-1.401 2.11-4.078.83-5.982-.73-1.095-1.9-1.741-3.15-1.741h-10.2v-7.367l2.13-2.323-1.12-1.213-4.93 5.4-5.16-5.651 7.11-7.784 7.53-1.498c.51 3.727 3.79 6.605 7.76 6.605zm-.18-1.713c-2.27 0-4.37-1.312-5.52-3.457l5.7-1.56 5.7 1.56c-1.15 2.145-3.25 3.457-5.51 3.457-.06 0-.13 0-.19-.002-.06.002-.12.002-.18.002zm.18-15.338c-.25 0-.52.028-.78.086-1.83.409-3.14 2.163-3.14 4.203h1.57c0-1.422 1.05-2.574 2.35-2.574s2.35 1.152 2.35 2.574-1.05 2.575-2.35 2.575c-.43 0-.78.385-.78.856v1.048l-5.42 1.482-.07-.812-.28-.657-.64-.186-8.62 1.715-.42.236-7.83 8.579a.907.907 0 000 1.213l6.27 6.864c.15.168.35.251.55.251.2 0 .4-.083.55-.251l1.8-1.967v5.649h-5.5c-2.15 0-3.9 1.907-3.9 4.264-.01 1.364.59 2.647 1.59 3.459-1.73 1.383-2.11 4.044-.85 5.937.24.354.52.668.85.925-1.74 1.401-2.11 4.077-.83 5.981.73 1.095 1.9 1.742 3.14 1.742h28.23l.55-.251 6.27-6.865.23-.607v-20.234l1.8 1.967c.15.168.35.251.55.251.2 0 .41-.083.56-.251l6.27-6.864a.907.907 0 000-1.213l-7.84-8.579-.41-.236-8.62-1.715a.657.657 0 00-.14-.013c-.37 0-.7.29-.77.704l-.02.152-.07.812-5.41-1.482v-.275c2.12-.474 3.48-2.74 3.05-5.063-.38-2.029-2.01-3.43-3.84-3.43z"/>
      <path fill="#1E4694" fill-opacity=".6" d="M1704.61 371.025h-18.81v1.716h18.81v-1.716zM1703.83 377.89h-18.03v1.715h18.03v-1.715zM1703.83 384.754h-18.03v1.713h18.03v-1.713z"/>
    </g>
    <g>
      <path fill="#1E4694" fill-opacity=".6" d="M1887.43 129.469l-5.21-5.699 1.3-1.424 5.21 5.698-1.3 1.425zm-6.51-7.121l-4.68-5.125 6.34-1.603 12 13.137-3.9 4.274-1.95-2.14 1.95-2.137c.36-.393.36-1.032 0-1.425l-6.51-7.12a.87.87 0 00-.65-.296c-.23 0-.47.099-.65.296l-1.95 2.139zm1.95-8.841c-.07 0-.14.008-.2.026l-8.46 2.137a.96.96 0 00-.68.705c-.09.35 0 .73.23.989l16.27 17.806a.87.87 0 00.65.296.87.87 0 00.65-.296l5.21-5.696c.36-.395.36-1.032 0-1.424l-13.01-14.245a.897.897 0 00-.66-.298zM1886.78 134.872c-.24 0-.47.1-.65.296a1.075 1.075 0 000 1.425l1.3 1.424a.87.87 0 00.65.296c.23 0 .47-.099.65-.296.36-.392.36-1.032 0-1.424l-1.3-1.425a.89.89 0 00-.65-.296zM1882.87 130.598c-.23 0-.47.097-.65.293a1.075 1.075 0 000 1.425l1.3 1.424c.18.197.42.294.65.294.24 0 .48-.097.65-.294.36-.393.36-1.032 0-1.424l-1.3-1.425a.878.878 0 00-.65-.293z"/>
      <path fill="#1E4694" fill-opacity=".6" d="M1885.48 147.275l-31.12-34.064c.38-.199.78-.293 1.19-.293.71 0 1.42.306 1.95.885l29.28 32.05-1.3 1.422zm5.85-30.625l-2.6-2.85 1.3-1.424 2.6 2.849-1.3 1.425zm-5.49 25.324l-25.18-27.566c2.85-.807 5.64-1.86 8.34-3.14 3.35-1.49 6.2-2.753 8.85-2.755 2.18 0 4.23.856 6.33 3.148l17.18 18.806-2.91 10.845-12.61.662zm-7.94-35.478c-3.05 0-6.19 1.399-9.59 2.907a46.29 46.29 0 01-9.2 3.305l-.31-.332c-.89-.983-2.07-1.475-3.25-1.475-1.18 0-2.35.492-3.25 1.475a1.074 1.074 0 000 1.424l32.53 35.609a.87.87 0 00.65.296c.23 0 .47-.099.65-.296l2.6-2.846c.36-.393.36-1.032 0-1.425l-1.13-1.239 11.59-.605c.39-.021.72-.309.83-.723l2.25-8.359c.63.474 1.36.704 2.08.704.95 0 1.89-.398 2.6-1.173l1.3-1.425a1.76 1.76 0 011.3-.589c.47 0 .94.197 1.3.589.18.197.42.296.65.296.24 0 .48-.099.66-.296.35-.392.35-1.029 0-1.424-.72-.786-1.67-1.179-2.61-1.179s-1.88.393-2.6 1.179l-1.3 1.424c-.36.393-.83.59-1.3.59-.47 0-.95-.197-1.31-.59l-.2-.225.44-1.626c.09-.354 0-.736-.24-.995l-10.4-11.395 1.95-2.14c.36-.393.36-1.029 0-1.422l-3.91-4.274a.874.874 0 00-.65-.296c-.23 0-.47.1-.65.296l-1.95 2.137-1.95-2.137c-2.52-2.755-5.01-3.745-7.58-3.745zM1862.7 128.463c-.23 0-.47.097-.65.294-.07.086-.15.128-.32.128-.12 0-.28-.021-.52-.058a2.189 2.189 0 00-.72-.123c-.62 0-1.23.267-1.68.762-.63.689-.86 1.708-.59 2.635.08.629.07.775-.07.924-.07.089-.16.129-.32.129-.12 0-.28-.021-.52-.058a2.242 2.242 0 00-.72-.123c-.63 0-1.24.267-1.69.765-.63.689-.86 1.707-.59 2.634.09.629.07.776-.06.927-.36.393-.36 1.03 0 1.425a.867.867 0 001.3 0c.6-.712.82-1.707.59-2.634-.09-.632-.07-.776.06-.928.08-.089.17-.128.34-.128.11 0 .27.018.51.055.24.084.48.123.72.123.62 0 1.23-.267 1.69-.762.63-.689.85-1.707.58-2.634-.08-.629-.07-.778.07-.928.08-.086.16-.128.32-.128.12 0 .28.021.52.058.23.065.45.097.68.097.63 0 1.25-.257 1.73-.739.36-.393.36-1.029 0-1.425a.905.905 0 00-.66-.288zM1867.26 133.45c-.23 0-.47.097-.65.293-.08.086-.16.126-.33.126-.12 0-.28-.021-.52-.058a2.12 2.12 0 00-.72-.123c-.62 0-1.23.267-1.68.765-.63.689-.86 1.707-.59 2.634.08.629.07.776-.06.925-.08.089-.16.128-.33.128-.12 0-.28-.021-.52-.057a2.164 2.164 0 00-.72-.124c-.62 0-1.23.268-1.69.765-.63.689-.85 1.708-.58 2.635.08.628.07.778-.07.927a1.075 1.075 0 000 1.425c.18.196.41.296.65.296.23 0 .47-.1.65-.296.59-.71.81-1.705.59-2.635-.09-.629-.07-.778.06-.927.08-.087.16-.128.33-.128.12 0 .28.018.52.057.24.084.48.123.72.123.62 0 1.23-.267 1.69-.764.63-.689.85-1.705.58-2.635-.08-.629-.07-.775.07-.925.08-.086.16-.128.33-.128.12 0 .28.021.52.058.22.065.44.097.67.097.63 0 1.25-.257 1.73-.736.36-.393.36-1.032 0-1.425a.887.887 0 00-.65-.293zM1871.82 138.434c-.24 0-.48.099-.66.296-.07.086-.16.125-.32.125-.12 0-.28-.021-.52-.057a2.163 2.163 0 00-.72-.123c-.62 0-1.23.267-1.69.764-.63.689-.85 1.708-.58 2.635.08.628.07.778-.06.924-.09.089-.17.129-.34.129-.11 0-.28-.019-.51-.055a2.163 2.163 0 00-.72-.123c-.63 0-1.24.267-1.69.764-.63.689-.86 1.708-.59 2.638.08.628.07.775-.06.927a1.074 1.074 0 000 1.424.87.87 0 00.65.296c.23 0 .47-.099.65-.296.59-.709.81-1.705.58-2.634-.08-.629-.07-.776.07-.927.08-.089.16-.129.33-.129.12 0 .28.021.52.058.23.081.48.123.72.123.62 0 1.23-.267 1.69-.765.63-.689.85-1.705.58-2.634-.08-.629-.07-.776.06-.925.08-.089.16-.128.33-.128.12 0 .28.021.52.057.22.066.45.097.67.097.64 0 1.26-.256 1.74-.738.36-.393.36-1.029 0-1.422a.88.88 0 00-.65-.301z"/>
    </g>
    <g>
      <path fill="#1E4694" fill-opacity=".6" d="M1892.15 721.94c.65-.393 1.3-.571 1.97-.574.46 0 .94.089 1.43.265.94.343 1.66 1.008 2.22 1.974l.1.184.56.275.2.099.22-.055c.81-.212 1.63-.33 2.45-.33l.55.016c.71.044 1.39.115 2.02.319l.21.071.55-.238.2-.089.12-.207c.71-1.291 1.67-1.998 3.02-2.216l.63-.05c1.81.006 3.39 1.223 4 3.198.13.458.2.935.2 1.409 0 1.372-.57 2.729-1.58 3.604v.002l-.25.247-.21.607.1.508c.28.94.41 1.888.41 2.844 0 .592-.05 1.189-.15 1.789l-.01.065.01-.062c-.29 1.673-.94 3.147-1.96 4.441l-.01.008-.13.176-.77 1.058 1.43.115.02.002h.03c1.12 0 2.25.003 3.38.003.89 0 1.78-.003 2.66-.01h.05c.61 0 1.12.091 1.59.364 1.03.605 1.57 1.697 1.58 2.817 0 .781-.26 1.569-.83 2.224l-.01.003c-.56.639-1.2.932-2.02.945-.59.003-1.19.005-1.78.005l-2.85-.002h-.99v1.018c.01 2.339.01 4.678.01 7.016 0 1.716-.01 3.434-.01 5.152 0 .765 0 1.527.01 2.291v.042c0 .679-.04 1.27-.22 1.82-.55 1.645-1.95 2.669-3.46 2.672-.37 0-.76-.066-1.14-.202-1.29-.482-2.04-1.357-2.41-2.787v-.002c-.12-.435-.12-1.006-.15-1.637v-.003l-.01-.555c0-.311.01-.641.01-.984v-.713h-.65c-.42 0-.83.003-1.23.003-.3 0-.59 0-.89-.003l-.31-.002-.35.466-.15.196v.254c.01.38.01.76.01 1.134l-.01.731c-.02 1.472-.52 2.524-1.6 3.396a3.34 3.34 0 01-2.07.705c-.72 0-1.43-.223-2.01-.652-1.16-.867-1.66-1.935-1.68-3.454-.01-1.244-.01-2.494-.01-3.74v-4.992c0-2.064 0-4.127-.01-6.196v-.974h-1.75c-.69 0-1.37-.003-2.06-.003-.55 0-1.1.003-1.66.011h-.04c-1.55-.003-2.84-1.268-2.94-2.931l-.01-.241c0-1.702 1.12-2.957 2.47-3.135a8.74 8.74 0 011.09-.055l.69.003h.06c1.12-.005 2.23-.005 3.35-.005h1.71l.13-.016 1.15-.144-.84-1.194-.01-.008v-.011c-.9-1.21-1.55-2.53-1.86-4.022a10.76 10.76 0 01-.23-2.171c0-1.006.15-2.001.46-2.994l.06-.209-.15-.587-.05-.215-.16-.141c-1.13-1.027-1.65-2.171-1.66-3.585 0-.336.03-.687.1-1.053v-.003c.25-1.398.95-2.38 2.12-3.095l.02-.013-.02.013zm1.96-2.001c-.88 0-1.76.249-2.59.749-1.45.861-2.46 2.27-2.77 4.08-.08.451-.12.891-.12 1.323-.01 1.752.7 3.307 1.97 4.507v.015c-.3 1.056-.47 2.13-.47 3.209 0 .83.09 1.663.26 2.49.29 1.349.86 2.538 1.55 3.648l-.56.003c-1.12 0-2.23 0-3.35.003h-.06l-.69-.003c-.4.003-.81.01-1.24.065-2 .254-3.62 2.135-3.62 4.555l.01.338c.15 2.438 2.04 4.26 4.24 4.26h.06c.55-.01 1.09-.01 1.65-.01.68 0 1.36.003 2.05.003H1890.88c0 1.914.01 3.828.01 5.74 0 1.663-.01 3.326-.01 4.989 0 1.247.01 2.499.01 3.748 0 1.909.78 3.564 2.26 4.63.82.597 1.78.893 2.74.893 1 0 2-.317 2.83-.974 1.38-1.077 2.15-2.674 2.15-4.547v-1.359h.96v.27l.01.636v-.002c.03.568.01 1.233.19 1.938l.08.343-.06-.257c.46 1.786 1.61 3.106 3.24 3.68.52.186 1.04.272 1.55.272 2.05 0 3.95-1.398 4.68-3.614v-.003c.26-.793.3-1.568.3-2.302v-.047c0-.762-.01-1.521-.01-2.286 0-1.716.01-3.433.01-5.151v-6.608c.84 0 1.68.003 2.53.003.59 0 1.19 0 1.79-.003 1.13-.003 2.18-.479 2.96-1.391a4.879 4.879 0 001.19-3.208c0-1.626-.8-3.229-2.27-4.077v-.003c-.72-.416-1.47-.529-2.2-.529h-.05c-.89.008-1.77.011-2.66.011-.78 0-1.57 0-2.36-.003.79-1.247 1.39-2.598 1.65-4.109a11.9 11.9 0 00.18-2.056c0-1.071-.15-2.137-.46-3.182 1.27-1.16 1.99-2.87 1.99-4.63 0-.623-.09-1.252-.28-1.862-.77-2.535-2.86-4.172-5.22-4.172h-.01l-.81.063c-1.61.238-2.92 1.191-3.8 2.668-.71-.196-1.4-.275-2.06-.319l-.62-.021c-.85 0-1.68.139-2.5.335l-.11-.052c-.67-1.079-1.57-1.941-2.74-2.357a5.431 5.431 0 00-1.84-.335c0 .005-.01.005-.01.005z"/>
      <path fill="#1E4694" fill-opacity=".6" d="M1908.57 723.155c-.86 0-1.67.459-2.13 1.234 1.58.893 2.87 2.118 3.86 3.705.66-.502 1.02-1.71.81-2.721-.22-1.12-1.05-1.985-2.09-2.176-.15-.026-.3-.042-.45-.042zM1894.1 723.147c-.11 0-.22.008-.33.026-1.03.163-1.94 1.098-2.17 2.268-.22 1.108.28 2.232.82 2.643.98-1.59 2.29-2.795 3.85-3.696-.32-.631-1.21-1.241-2.17-1.241zM1900.75 735.073c-.24 0-.49 0-.74.003-.34.002-.6.173-.73.529-.14.364-.05.678.21.951.32.34.61.717.96 1.026.35.32.51.673.46 1.179-.04.393-.01.796-.01 1.22l-.24-.034c-.64-.123-1.19-.445-1.66-.93l-.4-.136-.08.65c.62.681 1.38 1.073 2.25 1.181.16.021.33.031.49.031 1.05 0 1.97-.427 2.75-1.26l-.14-.602-.4.155c-.52.542-1.14.83-1.9.945v-1.854l.08-.141c.46-.509.94-1.004 1.4-1.517a.808.808 0 00.16-.867c-.11-.314-.33-.513-.65-.518-.6-.008-1.21-.011-1.81-.011zM1897.39 730.865l-.48-.529.5-.542.48.539-.5.532zm-.05-2.197c-.77 0-1.45.777-1.45 1.655 0 .89.67 1.663 1.44 1.671h.01c.92 0 1.58-.707 1.58-1.692 0-.922-.69-1.637-1.58-1.637v.003zM1905.28 730.891h-.01l-.49-.573a.55.55 0 01.54-.548h.01l.48.561c-.01.322-.24.56-.53.56zm-.02-2.226h-.03c-.78.016-1.46.786-1.45 1.66 0 .894.69 1.669 1.47 1.669h.02c.89-.013 1.55-.734 1.54-1.692-.01-.917-.7-1.637-1.55-1.637z"/>
    </g>
    <g>
      <path fill="#1E4694" fill-opacity=".6" d="M1533.05 774.833l.01.003-.01-.003c0 .003 0 0 0 0zm-11.49-.458c.25 0 .5-.021.77-.065.37-.066.74-.137 1.12-.207-.38.094-.76.146-1.13.248h-.01c-.36.103-.69.155-1 .155a2.06 2.06 0 01-1.13-.346c.44.134.9.215 1.38.215zm-10.14 9.315c-.74-1.846-1.41-3.734-1.94-5.643-1.92-6.833-3.88-13.655-6.18-20.365v-.002c-.31-.878-.61-1.726-.69-2.515l-.03-.602c.02-1.912.95-3.216 2.83-3.949a5.735 5.735 0 012.01-.354h.01c3.07 0 6.27 2.331 7.06 5.859v.002c.24 1.069.31 2.161.31 3.284 0 .912-.04 1.842-.08 2.79v-.003c-.03.961-.21 1.993-.24 3.101v-.003.325c-.01 4.07 1.78 7.267 4.71 9.58.65.518 1.39.736 2.11.736h.01c.45 0 .89-.076 1.32-.197 2.56-.702 5.13-1.168 7.74-1.168l.48.005c.72.016 1.46.116 2.19.262h.01c1.57.317 2.71 1.454 3.82 2.889 1.4 1.836 2.29 3.808 2.29 6.128v.257-.003c-.01.495-.18 1.1-.33 1.786l-.03.003c-2.2-.011-4.41-.013-6.61-.013h-5.28l-5.19.002c-1.88 0-3.75-.002-5.62-.013a14.72 14.72 0 01-2.21-.199c-1.19-.196-2.01-.84-2.47-1.98l-.02-.052.02.052zm-4-34.857c-.82 0-1.64.136-2.43.43-2.27.817-3.73 2.783-3.71 5.3l.04.765c.11 1.042.46 1.988.76 2.857v-.003c2.29 6.66 4.24 13.454 6.15 20.281.55 1.977 1.24 3.913 1.99 5.798.62 1.59 1.93 2.593 3.49 2.826.78.121 1.58.21 2.39.212 1.87.011 3.75.013 5.62.013l4.54-.002v.002h.65l5.29-.002c2.2 0 4.4.002 6.6.013l.8-.223.5-.848c.11-.6.34-1.289.37-2.101v-.298c0-2.745-1.08-5.065-2.6-7.045-1.16-1.503-2.55-2.962-4.59-3.376h-.01c-.77-.154-1.58-.264-2.39-.283l-.51-.008c-.75 0-1.48.116-2.21.184-2.46-1.825-3.85-4.363-4.94-7.255.63-.212 1.18-.4 1.74-.594 2.66-.922 5.32-1.833 7.97-2.781a7.687 7.687 0 001.65-.83c1.1-.739 1.7-1.818 1.53-3.266-.17-1.446-.96-2.378-2.19-2.878a4.032 4.032 0 00-1.55-.302c-.57 0-1.13.108-1.69.286-4.53 1.438-9.07 2.873-13.59 4.332l-.61.591c-.23.558-.34 1.145-.47 1.724l.01-.095v-.005c.03-.93.09-1.88.09-2.844 0-1.189-.08-2.404-.36-3.632-.98-4.261-4.69-6.935-8.33-6.943z"/>
      <path fill="#1E4694" fill-opacity=".6" d="M1516.07 744.512c-2.69 0-5.45 2.158-5.76 4.672 3.67 1.356 5.66 4.138 5.88 8.388.15.021.3.031.46.031 2.47 0 4.93-2.684 5.32-5.923.41-3.368-2.04-6.686-5.25-7.126a4.785 4.785 0 00-.65-.042zM1512.16 756.26h-3.51v3.902c.04.003.07.003.11.003 2.06 0 3.59-2.137 3.4-3.905zM1508.65 756.242h-.02v.02h.02v-.02zM1508.63 752.397c-2 .019-3.6 1.784-3.52 3.845h3.52v-3.845z"/>
    </g>
    <g>
      <path fill="#1E4694" fill-opacity=".6" d="M1861.76 504.288l3.84-29.368h35.84l3.85 29.368h-43.53zm40.82-30.795h-38.1l-4.22 32.223h46.54l-4.22-32.223zM1883.53 462.349c-4.74.005-8.53 4.4-8.54 9.774 0 .364.27.657.6.657.34 0 .6-.293.6-.657.01-4.696 3.31-8.449 7.34-8.457 4.02.008 7.33 3.761 7.33 8.457 0 .364.27.657.6.657.33 0 .6-.293.6-.657-.01-5.374-3.8-9.769-8.53-9.774z"/>
    </g>
    <g>
      <path fill="#1E4694" fill-opacity=".6" d="M1023.97 18.035c.49-.275 1.12-.456 1.91-.55 7.09-.849 22.15-10.607 23.85-11.717.85-.555 1.38-1.532 1.41-2.611.02-.393.27-3.84 4.98-3.84 4.7 0 4.96 3.444 4.97 3.84.04 1.079.57 2.053 1.41 2.61 1.7 1.111 16.77 10.87 23.86 11.718.78.094 1.41.28 1.9.55h-64.29zm32.15-19.778c-5.61 0-5.93 4.363-5.95 4.86-.02.72-.37 1.373-.94 1.742-1.67 1.097-16.57 10.748-23.46 11.57-1.58.189-2.71.739-3.35 1.635l-.13.212-.49.82h68.63l-.48-.82-.14-.215c-.64-.896-1.76-1.443-3.35-1.632-6.88-.822-21.78-10.473-23.46-11.57-.56-.37-.92-1.021-.94-1.741-.02-.498-.33-4.861-5.94-4.861zm-28 16.46c1.52 0 2.75-1.354 2.75-3.02 0-.419-.07-.825-.23-1.202 6.25-2.729 14.06-7.658 15.61-8.642l.18-.116.04-.225c.37-1.76 2.13-7.503 9.65-7.503 7.52 0 9.28 5.74 9.64 7.503l.04.225.19.116c1.54.984 9.35 5.913 15.6 8.642-.15.377-.23.783-.23 1.202 0 1.666 1.23 3.02 2.75 3.02 1.37 0 2.5-1.092 2.72-2.517l.05.008c2.72.325 4.76 1.448 6.05 3.339 1.83 2.648 1.4 5.699 1.35 6.036-.16 1.022-.97 1.763-1.91 1.763h-72.51c-.95 0-1.75-.739-1.91-1.763-.05-.337-.48-3.388 1.34-6.036 1.3-1.891 3.34-3.014 6.06-3.34l.04-.007c.23 1.425 1.36 2.517 2.73 2.517zm28.45-21.763l.03.481-.97.084c-.01-.115-.02-.311-.03-.565-7.52.248-9.53 5.965-10.02 8.095-1.94 1.23-9.76 6.123-15.81 8.679l-.59.251.37.56c.24.341.36.744.36 1.155 0 1.077-.81 1.957-1.79 1.957-.99 0-1.79-.88-1.79-1.936l.04-.78-.75.15-.38.065c-2.99.356-5.25 1.62-6.72 3.755-2.06 3.007-1.59 6.474-1.53 6.86.25 1.531 1.45 2.639 2.87 2.639h72.51c1.42 0 2.62-1.108 2.86-2.64.07-.385.54-3.85-1.52-6.859-1.47-2.134-3.73-3.4-6.72-3.755l-.38-.066-.74-.055.03.665c0 1.077-.8 1.957-1.79 1.957-.98 0-1.78-.88-1.78-1.957 0-.413.12-.814.35-1.155l.37-.56-.59-.251c-6.05-2.554-13.87-7.448-15.81-8.68-.48-2.131-2.51-7.872-10.08-8.094z"/>
    </g>
  </g>
  <defs>
    <clipPath id="clip0">
      <path fill="#fff" d="M0 0h1931v1131H0z" transform="translate(0 -340)"/>
    </clipPath>
  </defs>
</svg>
