<?xml version="1.0" encoding="utf-8"?>
<!-- Generator: Adobe Illustrator 16.0.0, SVG Export Plug-In . SVG Version: 6.00 Build 0)  -->
<!DOCTYPE svg PUBLIC "-//W3C//DTD SVG 1.1//EN" "http://www.w3.org/Graphics/SVG/1.1/DTD/svg11.dtd">
<svg version="1.1" id="Layer_1" xmlns="http://www.w3.org/2000/svg" xmlns:xlink="http://www.w3.org/1999/xlink" x="0px" y="0px"
	 width="507.943px" height="168.884px" viewBox="0 0 507.943 168.884" enable-background="new 0 0 507.943 168.884"
	 xml:space="preserve">
<rect x="398.167" y="151.996" fill="#F3704B" width="16.89" height="16.888"/>
<rect x="415.057" y="151.996" fill="#E31F26" width="16.889" height="16.888"/>
<rect x="381.279" y="135.106" fill="#6B0A10" width="16.889" height="16.89"/>
<rect x="398.167" y="135.106" fill="#DA202C" width="16.89" height="16.89"/>
<rect x="415.057" y="135.106" fill="#F04E37" width="16.889" height="16.89"/>
<rect x="431.945" y="135.106" fill="#EF4123" width="16.889" height="16.89"/>
<rect x="330.614" y="135.106" fill="#DA202C" width="16.889" height="16.89"/>
<rect x="347.502" y="135.106" fill="#E31F26" width="16.89" height="16.89"/>
<rect x="364.392" y="135.106" fill="#EF4123" width="16.889" height="16.89"/>
<rect x="381.279" y="118.217" fill="#B72126" width="16.889" height="16.89"/>
<rect x="398.167" y="118.217" fill="#E31F26" width="16.89" height="16.89"/>
<rect x="415.057" y="118.217" fill="#B72126" width="16.889" height="16.89"/>
<rect x="431.945" y="118.217" fill="#EE3124" width="16.889" height="16.89"/>
<rect x="448.832" y="118.217" fill="#F3704B" width="16.89" height="16.89"/>
<rect x="296.837" y="101.33" fill="#F68D68" width="16.89" height="16.888"/>
<rect x="330.614" y="118.217" fill="#F04E3E" width="16.889" height="16.89"/>
<rect x="347.502" y="118.217" fill="#EE3124" width="16.89" height="16.89"/>
<rect x="364.392" y="118.217" fill="#E31F26" width="16.889" height="16.89"/>
<rect x="381.279" y="101.33" fill="#E31F26" width="16.889" height="16.888"/>
<rect x="398.167" y="101.33" fill="#F04E37" width="16.89" height="16.888"/>
<rect x="415.057" y="101.33" fill="#EF4123" width="16.889" height="16.888"/>
<rect x="431.945" y="101.33" fill="#E31F26" width="16.889" height="16.888"/>
<rect x="448.832" y="101.33" fill="#EF4123" width="16.89" height="16.888"/>
<rect x="381.279" y="84.442" fill="#F3704B" width="16.889" height="16.889"/>
<rect x="398.167" y="84.442" fill="#F68D68" width="16.89" height="16.889"/>
<rect x="415.057" y="84.442" fill="#6B0A10" width="16.889" height="16.889"/>
<rect x="431.945" y="84.442" fill="#F04E37" width="16.889" height="16.889"/>
<rect x="448.832" y="84.442" fill="#E31F26" width="16.89" height="16.889"/>
<rect x="431.945" y="67.554" fill="#E31F26" width="16.889" height="16.888"/>
<rect x="431.945" y="50.666" fill="#F3713C" width="16.889" height="16.888"/>
<rect x="448.832" y="33.777" fill="#F3713C" width="16.89" height="16.889"/>
<rect x="415.057" y="67.554" fill="#F68D68" width="16.889" height="16.888"/>
<rect x="448.832" y="67.554" fill="#F68D68" width="16.89" height="16.888"/>
<rect x="465.722" y="67.554" fill="#DA202C" width="16.89" height="16.888"/>
<rect x="448.832" y="50.666" fill="#E31F26" width="16.89" height="16.888"/>
<rect x="465.722" y="50.666" fill="#DC4128" width="16.89" height="16.888"/>
<rect x="465.722" y="33.777" fill="#E31F26" width="16.89" height="16.889"/>
<rect x="482.611" y="33.777" fill="#F04E37" width="16.888" height="16.889"/>
<rect x="499.498" y="33.777" fill="#F3704B" width="8.445" height="16.889"/>
<rect x="482.611" y="16.889" fill="#EE3124" width="16.888" height="16.888"/>
<rect x="465.722" y="84.442" fill="#F58E84" width="16.89" height="16.889"/>
<rect x="330.614" y="101.33" fill="#B72126" width="16.889" height="16.888"/>
<rect x="347.502" y="101.33" fill="#F68D68" width="16.89" height="16.888"/>
<rect x="364.392" y="101.33" fill="#F04E37" width="16.889" height="16.888"/>
<rect x="431.945" y="151.996" fill="#F3704B" width="16.888" height="16.888"/>
<rect x="448.834" y="151.996" fill="#B72126" width="8.444" height="8.443"/>
<rect x="448.834" y="143.551" fill="#EE3124" width="8.444" height="8.444"/>
<rect x="448.834" y="135.106" fill="#DA202C" width="8.444" height="8.443"/>
<rect x="457.278" y="135.106" fill="#EE3124" width="8.443" height="8.443"/>
<rect x="465.724" y="118.218" fill="#F58E84" width="8.443" height="8.444"/>
<rect x="465.724" y="109.774" fill="#F3713C" width="8.443" height="8.442"/>
<rect x="465.724" y="101.331" fill="#DC4128" width="8.443" height="8.443"/>
<rect x="482.611" y="92.886" fill="#DC4128" width="8.442" height="8.444"/>
<rect x="499.498" y="25.333" fill="#DC4128" width="8.445" height="8.444"/>
<rect x="474.167" y="25.333" fill="#DC4128" width="8.444" height="8.444"/>
<rect x="465.724" y="25.333" fill="#F68D68" width="8.443" height="8.444"/>
<rect x="499.498" y="50.666" fill="#DC4128" width="8.445" height="8.444"/>
<rect x="482.611" y="50.666" fill="#F3704B" width="8.442" height="8.444"/>
<rect x="482.611" y="59.11" fill="#F68D68" width="8.442" height="8.444"/>
<rect x="491.056" y="8.445" fill="#DC4128" width="8.443" height="8.444"/>
<rect x="491.055" fill="#F3704B" width="8.443" height="8.445"/>
<rect x="448.834" y="160.439" fill="#F04E37" width="8.445" height="8.443"/>
<rect x="372.837" y="151.996" fill="#F3704B" width="8.443" height="8.443"/>
<rect x="389.725" y="151.996" fill="#B72126" width="8.443" height="8.443"/>
<rect x="381.28" y="151.996" fill="#F04E37" width="8.443" height="8.443"/>
<rect x="347.504" y="151.996" fill="#F3704B" width="8.444" height="8.443"/>
<rect x="322.172" y="135.106" fill="#F3704B" width="8.443" height="8.443"/>
<rect x="364.393" y="151.996" fill="#F68D68" width="8.443" height="8.443"/>
<rect x="355.948" y="151.996" fill="#F58E84" width="8.443" height="8.443"/>
<rect x="288.395" y="92.886" fill="#FABFB7" width="8.443" height="8.444"/>
<rect x="313.727" y="109.774" fill="#EE3124" width="16.889" height="17.026"/>
<rect x="322.311" y="126.663" fill="#F68D68" width="8.443" height="8.443"/>
<rect x="322.172" y="101.331" fill="#F3704B" width="8.443" height="8.443"/>
<g>
	<defs>
		<rect id="SVGID_1_" width="507.943" height="168.884"/>
	</defs>
	<clipPath id="SVGID_2_">
		<use xlink:href="#SVGID_1_"  overflow="visible"/>
	</clipPath>
	<path clip-path="url(#SVGID_2_)" d="M4.988,112.63c-1.729-1.721-2.595-4.176-2.595-7.365V93.084h5.034v11.994
		c0,3.896,1.617,5.843,4.848,5.843c1.574,0,2.776-0.474,3.605-1.414c0.828-0.942,1.243-2.419,1.243-4.429V93.084h4.971v12.181
		c0,3.189-0.865,5.645-2.594,7.365c-1.73,1.72-4.149,2.579-7.256,2.579C9.136,115.209,6.717,114.35,4.988,112.63"/>
	<path clip-path="url(#SVGID_2_)" d="M40.925,110.173H30.827l-1.926,4.661h-5.159l9.695-21.752h4.972l9.726,21.752h-5.282
		L40.925,110.173z M39.34,106.353l-3.449-8.328l-3.449,8.328H39.34z"/>
	<polygon clip-path="url(#SVGID_2_)" points="67.246,110.796 67.246,114.836 50.403,114.836 50.403,93.084 66.842,93.084 
		66.842,97.124 55.406,97.124 55.406,101.847 65.506,101.847 65.506,105.763 55.406,105.763 55.406,110.796 	"/>
	<rect x="80.046" y="93.084" clip-path="url(#SVGID_2_)" width="5.034" height="21.752"/>
	<polygon clip-path="url(#SVGID_2_)" points="110.189,93.084 110.189,114.836 106.055,114.836 95.21,101.629 95.21,114.836 
		90.239,114.836 90.239,93.084 94.403,93.084 105.216,106.29 105.216,93.084 	"/>
	<polygon clip-path="url(#SVGID_2_)" points="135.296,93.084 135.296,114.836 131.163,114.836 120.317,101.629 120.317,114.836 
		115.347,114.836 115.347,93.084 119.51,93.084 130.323,106.29 130.323,93.084 	"/>
	<path clip-path="url(#SVGID_2_)" d="M144.882,113.748c-1.812-0.975-3.231-2.316-4.257-4.025c-1.025-1.709-1.538-3.629-1.538-5.763
		s0.513-4.056,1.538-5.765c1.026-1.709,2.445-3.052,4.257-4.023c1.813-0.974,3.849-1.461,6.107-1.461
		c2.257,0,4.288,0.487,6.09,1.461c1.802,0.972,3.221,2.314,4.257,4.023s1.554,3.631,1.554,5.765s-0.518,4.054-1.554,5.763
		s-2.455,3.051-4.257,4.025c-1.802,0.974-3.833,1.461-6.09,1.461C148.731,115.209,146.695,114.722,144.882,113.748 M154.469,110.035
		c1.035-0.591,1.849-1.414,2.439-2.472c0.59-1.056,0.886-2.258,0.886-3.604c0-1.347-0.296-2.548-0.886-3.605
		c-0.59-1.056-1.404-1.881-2.439-2.47c-1.036-0.59-2.196-0.886-3.48-0.886c-1.285,0-2.445,0.296-3.481,0.886
		c-1.036,0.589-1.849,1.414-2.439,2.47c-0.59,1.058-0.886,2.259-0.886,3.605c0,1.346,0.296,2.548,0.886,3.604
		c0.59,1.058,1.403,1.881,2.439,2.472c1.036,0.59,2.196,0.886,3.481,0.886C152.273,110.921,153.434,110.625,154.469,110.035"/>
	<polygon clip-path="url(#SVGID_2_)" points="186.879,93.084 177.463,114.836 172.492,114.836 163.108,93.084 168.545,93.084 
		175.165,108.621 181.876,93.084 	"/>
	<path clip-path="url(#SVGID_2_)" d="M202.292,110.173h-10.099l-1.926,4.661h-5.159l9.695-21.752h4.972l9.726,21.752h-5.282
		L202.292,110.173z M200.708,106.353l-3.449-8.328l-3.449,8.328H200.708z"/>
	<polygon clip-path="url(#SVGID_2_)" points="215.188,97.186 208.227,97.186 208.227,93.082 227.183,93.082 227.183,97.186 
		220.222,97.186 220.222,114.834 215.188,114.834 	"/>
	<polygon clip-path="url(#SVGID_2_)" points="246.729,110.796 246.729,114.836 229.886,114.836 229.886,93.084 246.325,93.084 
		246.325,97.124 234.889,97.124 234.889,101.847 244.989,101.847 244.989,105.763 234.889,105.763 234.889,110.796 	"/>
	<path clip-path="url(#SVGID_2_)" d="M252.897,114.51c-1.606-0.466-2.896-1.072-3.869-1.818l1.709-3.791
		c0.932,0.683,2.04,1.233,3.325,1.647c1.283,0.414,2.566,0.621,3.853,0.621c1.429,0,2.486-0.213,3.169-0.639
		c0.684-0.423,1.026-0.987,1.026-1.691c0-0.518-0.202-0.948-0.607-1.29c-0.403-0.343-0.92-0.616-1.552-0.823
		c-0.633-0.207-1.489-0.437-2.564-0.685c-1.657-0.393-3.014-0.786-4.07-1.18c-1.057-0.394-1.963-1.025-2.719-1.896
		c-0.757-0.87-1.135-2.03-1.135-3.48c0-1.264,0.342-2.41,1.027-3.434c0.683-1.025,1.714-1.839,3.092-2.439
		c1.377-0.601,3.06-0.901,5.047-0.901c1.39,0,2.747,0.166,4.073,0.496c1.325,0.332,2.485,0.81,3.479,1.431l-1.555,3.822
		c-2.008-1.14-4.018-1.709-6.027-1.709c-1.408,0-2.449,0.228-3.122,0.684c-0.675,0.456-1.013,1.055-1.013,1.802
		c0,0.746,0.391,1.299,1.166,1.663c0.778,0.362,1.963,0.718,3.56,1.071c1.656,0.393,3.015,0.788,4.07,1.182
		c1.057,0.394,1.962,1.014,2.72,1.864c0.756,0.848,1.134,1.999,1.134,3.449c0,1.242-0.348,2.377-1.041,3.4
		c-0.696,1.027-1.737,1.84-3.123,2.441c-1.388,0.599-3.076,0.9-5.065,0.9C256.165,115.208,254.501,114.976,252.897,114.51"/>
	<path clip-path="url(#SVGID_2_)" d="M2.862,81.615l0.41-3.914c0.858,0.261,1.827,0.447,3.02,0.447c2.498,0,3.989-1.193,3.989-5.219
		v-17.93h4.92v13.643h3.69v3.877h-3.69v0.15c0,4.771-1.603,9.319-9.207,9.319C4.839,81.988,3.795,81.839,2.862,81.615"/>
	<rect x="18.334" y="68.642" clip-path="url(#SVGID_2_)" width="4.436" height="3.877"/>
	<rect x="22.361" y="68.642" clip-path="url(#SVGID_2_)" width="4.436" height="3.877"/>
	<rect x="26.387" y="68.642" clip-path="url(#SVGID_2_)" width="4.436" height="3.877"/>
	<rect x="30.414" y="68.642" clip-path="url(#SVGID_2_)" width="4.436" height="3.877"/>
	<rect x="34.439" y="68.642" clip-path="url(#SVGID_2_)" width="4.436" height="3.877"/>
	<rect x="38.465" y="68.642" clip-path="url(#SVGID_2_)" width="4.436" height="3.877"/>
	<rect x="42.492" y="68.642" clip-path="url(#SVGID_2_)" width="4.436" height="3.877"/>
	<rect x="46.518" y="68.642" clip-path="url(#SVGID_2_)" width="4.436" height="3.877"/>
	<path clip-path="url(#SVGID_2_)" d="M50.544,68.642h11.071c-0.223-5.778-3.206-9.133-9.133-10.512v-3.616l14.762-9.245v4.884
		l-9.096,5.479c4.698,2.125,7.866,5.853,8.239,13.01h3.019v3.877H50.544V68.642z"/>
	<path clip-path="url(#SVGID_2_)" d="M68.851,68.643h5.218V54.999h4.921v13.644h3.318v3.877H68.851V68.643z M70.268,49.63
		c0-1.379,1.081-2.534,2.459-2.534c1.416,0,2.498,1.118,2.498,2.534c0,1.38-1.082,2.535-2.498,2.535
		C71.349,52.166,70.268,51.047,70.268,49.63 M76.455,49.63c0-1.379,1.081-2.534,2.46-2.534c1.38,0,2.461,1.118,2.461,2.534
		c0,1.38-1.081,2.535-2.461,2.535C77.536,52.166,76.455,51.047,76.455,49.63"/>
	<path clip-path="url(#SVGID_2_)" d="M81.75,68.642h5.219V54.999h4.921v13.643h3.653v3.877H81.75V68.642z M84.099,78.111
		c0-1.417,1.155-2.572,2.572-2.572c1.416,0,2.573,1.118,2.573,2.572c0,1.416-1.157,2.572-2.573,2.572
		C85.254,80.683,84.099,79.564,84.099,78.111"/>
	<path clip-path="url(#SVGID_2_)" d="M94.986,68.643h5.218V54.999h4.921V72.52H94.986V68.643z M96.403,49.63
		c0-1.379,1.081-2.534,2.459-2.534c1.416,0,2.498,1.118,2.498,2.534c0,1.38-1.082,2.535-2.498,2.535
		C97.484,52.166,96.403,51.047,96.403,49.63 M102.59,49.63c0-1.379,1.081-2.534,2.46-2.534c1.38,0,2.461,1.118,2.461,2.534
		c0,1.38-1.081,2.535-2.461,2.535C103.671,52.166,102.59,51.047,102.59,49.63"/>
	<path clip-path="url(#SVGID_2_)" d="M132.528,72.52c-10.14,0-13.681-4.212-13.681-11.035c0-2.012,0.409-4.324,0.969-5.852
		l5.256-0.857c-0.783,1.714-1.268,4.174-1.268,6.151c0,5.256,2.275,7.716,9.245,7.716h5.07V54.999h4.921V72.52H132.528z
		 M126.414,49.63c0-1.379,1.081-2.534,2.46-2.534c1.416,0,2.498,1.118,2.498,2.534c0,1.38-1.082,2.535-2.498,2.535
		C127.495,52.166,126.414,51.047,126.414,49.63 M132.602,49.63c0-1.379,1.081-2.534,2.46-2.534c1.38,0,2.461,1.118,2.461,2.534
		c0,1.38-1.081,2.535-2.461,2.535C133.683,52.166,132.602,51.047,132.602,49.63"/>
	<rect x="148.972" y="46.239" clip-path="url(#SVGID_2_)" width="4.92" height="26.28"/>
	<path clip-path="url(#SVGID_2_)" d="M152.55,81.615l0.41-3.914c0.858,0.261,1.827,0.447,3.02,0.447
		c2.498,0,3.989-1.193,3.989-5.219v-17.93h4.92v17.67c0,4.771-1.603,9.319-9.207,9.319C154.527,81.988,153.483,81.839,152.55,81.615
		"/>
	<polygon clip-path="url(#SVGID_2_)" points="170.82,46.239 175.74,46.239 175.74,68.642 179.467,68.642 179.467,72.519 
		170.82,72.519 	"/>
	<rect x="178.91" y="68.642" clip-path="url(#SVGID_2_)" width="4.436" height="3.877"/>
	<rect x="182.936" y="68.642" clip-path="url(#SVGID_2_)" width="4.436" height="3.877"/>
	<rect x="186.962" y="68.642" clip-path="url(#SVGID_2_)" width="4.436" height="3.877"/>
	<rect x="190.989" y="68.642" clip-path="url(#SVGID_2_)" width="4.436" height="3.877"/>
	<rect x="195.014" y="68.642" clip-path="url(#SVGID_2_)" width="4.436" height="3.877"/>
	<rect x="199.041" y="68.642" clip-path="url(#SVGID_2_)" width="4.436" height="3.877"/>
	<rect x="203.067" y="68.642" clip-path="url(#SVGID_2_)" width="4.436" height="3.877"/>
	<rect x="207.093" y="68.642" clip-path="url(#SVGID_2_)" width="4.436" height="3.877"/>
	<path clip-path="url(#SVGID_2_)" d="M224.278,72.519c-4.4,0-6.562-1.044-7.68-2.87c-0.932,1.939-2.684,2.87-4.92,2.87h-0.56v-3.877
		h0.746c1.79,0,2.795-1.081,2.795-4.472c0-5.331,3.244-9.656,9.506-9.656c6.002,0,8.612,3.43,8.612,8.872v9.133H224.278z
		 M227.968,63.945c0-3.914-1.417-5.554-4.138-5.554c-2.721,0-4.324,2.162-4.324,5.33c0,3.282,1.416,4.921,5.256,4.921h3.206V63.945z
		"/>
	<path clip-path="url(#SVGID_2_)" d="M246.835,65.847h-4.995l-5.331-19.198l4.883-0.671L246.835,65.847z M238.037,72.519v-3.876
		h11.519V46.239h4.919v26.28H238.037z M238.41,79.789c0.671,0,1.342,0.037,1.827,0.148c-0.262-0.223-0.485-0.67-0.485-1.229
		c0-2.014,1.565-3.84,5.181-3.84c0.97,0,1.939,0.111,2.2,0.187l-0.448,2.683c-0.26-0.037-1.005-0.186-1.789-0.186
		c-1.044,0-1.64,0.447-1.64,1.081c0,0.746,0.633,1.156,2.348,1.156h2.2v2.721h-9.394V79.789z"/>
	<rect x="260.78" y="46.239" clip-path="url(#SVGID_2_)" width="4.92" height="26.28"/>
	<rect y="126.974" clip-path="url(#SVGID_2_)" fill="#818385" width="268.26" height="24.429"/>
	<polygon clip-path="url(#SVGID_2_)" fill="#FFFFFF" points="10.257,136.228 10.257,143.704 8.123,143.704 8.123,136.228 
		5.887,136.228 5.887,134.396 12.494,134.396 12.494,136.228 	"/>
	<path clip-path="url(#SVGID_2_)" fill="#FFFFFF" d="M17.93,142.828c-0.674,0.686-1.532,1.031-2.574,1.031
		c-2.196,0-3.294-1.141-3.294-3.424c0-1.107,0.342-2.01,1.025-2.708c0.669-0.685,1.533-1.028,2.593-1.028
		c1.05,0,1.856,0.287,2.418,0.86c0.575,0.589,0.862,1.447,0.862,2.575C18.959,141.228,18.616,142.128,17.93,142.828 M15.538,138.491
		c-0.363,0-0.662,0.135-0.896,0.401c-0.265,0.308-0.397,0.743-0.397,1.31c0,1.221,0.417,1.832,1.253,1.832
		c0.391,0,0.7-0.153,0.93-0.458c0.233-0.314,0.349-0.755,0.349-1.32C16.777,139.079,16.364,138.491,15.538,138.491"/>
	<path clip-path="url(#SVGID_2_)" fill="#FFFFFF" d="M28.025,143.704h-2.229l-0.761-2.386c-0.135-0.475-0.268-1.022-0.398-1.642
		h-0.013c-0.08,0.417-0.229,0.992-0.445,1.722l-0.686,2.306h-2.115l-2.082-6.856h2.291l0.525,1.906
		c0.318,1.229,0.507,1.974,0.565,2.235h0.028c0.102-0.635,0.273-1.348,0.511-2.142l0.593-2h1.94l0.613,1.906
		c0.292,1.006,0.484,1.756,0.579,2.249h0.027c0.144-0.778,0.303-1.495,0.478-2.155l0.566-2h2.156L28.025,143.704z"/>
	<path clip-path="url(#SVGID_2_)" fill="#FFFFFF" d="M34.768,143.703c0-0.458,0.018-0.804,0.054-1.036h-0.014
		c-0.363,0.795-1.061,1.19-2.094,1.19c-0.633,0-1.129-0.197-1.489-0.591c-0.341-0.368-0.511-0.849-0.511-1.443
		c0-1.605,1.286-2.409,3.859-2.409v-0.21c0-0.614-0.357-0.924-1.071-0.924c-0.656,0-1.352,0.154-2.088,0.458l-0.317-1.602
		c0.858-0.311,1.751-0.465,2.681-0.465c1.077,0,1.846,0.212,2.304,0.634c0.403,0.377,0.605,0.973,0.605,1.791v2.976
		c0,0.612,0.019,1.156,0.054,1.631H34.768z M34.573,140.754c-1.23,0-1.846,0.285-1.846,0.854c0,0.433,0.225,0.648,0.674,0.648
		c0.336,0,0.619-0.136,0.849-0.404c0.215-0.256,0.323-0.559,0.323-0.911V140.754z"/>
	<path clip-path="url(#SVGID_2_)" fill="#FFFFFF" d="M42.103,138.767c-1.168-0.271-1.752,0.434-1.752,2.106v2.83h-2.095v-6.855h1.96
		c0,0.407-0.033,0.813-0.1,1.212h0.033c0.427-0.965,1.112-1.423,2.055-1.374L42.103,138.767z"/>
	<path clip-path="url(#SVGID_2_)" fill="#FFFFFF" d="M47.202,143.703c0-0.362,0.022-0.688,0.067-0.976h-0.027
		c-0.431,0.762-1.125,1.145-2.081,1.145c-0.813,0-1.438-0.291-1.873-0.875c-0.417-0.562-0.626-1.345-0.626-2.346
		c0-1.152,0.321-2.091,0.963-2.813c0.669-0.75,1.576-1.125,2.721-1.125c0.238,0,0.467,0.014,0.687,0.04v-3.118h2.102v10.068H47.202z
		 M47.033,138.464c-0.233-0.061-0.472-0.088-0.714-0.088c-0.956,0-1.434,0.688-1.434,2.062c0,1.118,0.316,1.675,0.95,1.675
		c0.349,0,0.636-0.182,0.861-0.55c0.225-0.373,0.337-0.845,0.337-1.415V138.464z"/>
	<path clip-path="url(#SVGID_2_)" fill="#FFFFFF" d="M54.287,143.226c-0.561,0.423-1.311,0.634-2.249,0.634
		c-0.557,0-1.064-0.067-1.522-0.197l0.114-1.709c0.422,0.184,0.9,0.276,1.434,0.276c0.562,0,0.843-0.181,0.843-0.539
		c0-0.216-0.133-0.395-0.397-0.532c0.112,0.058-0.178-0.059-0.869-0.351c-0.84-0.359-1.26-0.972-1.26-1.832
		c0-0.673,0.245-1.212,0.734-1.616c0.534-0.449,1.302-0.674,2.304-0.674c0.337,0,0.736,0.041,1.198,0.121l-0.073,1.644
		c-0.328-0.121-0.724-0.182-1.186-0.182c-0.521,0-0.781,0.175-0.781,0.523c0,0.195,0.132,0.361,0.398,0.498
		c0.088,0.051,0.226,0.112,0.41,0.185c0.229,0.09,0.386,0.152,0.471,0.193c0.858,0.393,1.286,1.004,1.286,1.84
		C55.142,142.231,54.857,142.804,54.287,143.226"/>
	<path clip-path="url(#SVGID_2_)" fill="#FFFFFF" d="M63.07,143.65c-0.521,0.139-1.04,0.209-1.556,0.209
		c-0.795,0-1.342-0.16-1.643-0.48c-0.301-0.313-0.451-0.89-0.451-1.729v-3.187h-1.037v-1.616h1.037v-2.026l2.108-0.566v2.593h1.475
		v1.616h-1.475v2.702c0,0.349,0.051,0.593,0.154,0.734c0.104,0.135,0.285,0.2,0.546,0.2c0.206,0,0.446-0.03,0.721-0.095
		L63.07,143.65z"/>
	<path clip-path="url(#SVGID_2_)" fill="#FFFFFF" d="M68.431,143.704v-4.357c0-0.589-0.211-0.883-0.633-0.883
		c-0.368,0-0.689,0.195-0.963,0.586c-0.269,0.385-0.404,0.833-0.404,1.341v3.313h-2.095v-10.069h2.095v2.748
		c0,0.555-0.036,1.023-0.107,1.4h0.012c0.449-0.725,1.17-1.084,2.162-1.084c1.357,0,2.035,0.726,2.035,2.176v4.829H68.431z"/>
	<path clip-path="url(#SVGID_2_)" fill="#FFFFFF" d="M77.942,140.821h-4.075c0.018,0.938,0.584,1.408,1.697,1.408
		c0.669,0,1.341-0.136,2.014-0.404l0.209,1.576c-0.821,0.305-1.677,0.458-2.566,0.458c-2.317,0-3.476-1.17-3.476-3.51
		c0-1.06,0.295-1.928,0.883-2.6c0.615-0.702,1.439-1.051,2.472-1.051c0.979,0,1.722,0.285,2.229,0.854
		c0.463,0.518,0.694,1.22,0.694,2.109C78.022,140.103,77.996,140.489,77.942,140.821 M75.955,139.44
		c0.027-0.811-0.296-1.212-0.97-1.212c-0.669,0-1.042,0.401-1.118,1.212H75.955z"/>
	<path clip-path="url(#SVGID_2_)" fill="#FFFFFF" d="M86.084,143.704v-4.357c0-0.589-0.211-0.883-0.633-0.883
		c-0.368,0-0.689,0.195-0.963,0.586c-0.269,0.382-0.404,0.824-0.404,1.327v3.327H81.99v-6.856h1.96c0,0.453-0.027,0.813-0.081,1.077
		l0.014,0.012c0.489-0.825,1.246-1.237,2.269-1.237c1.357,0,2.035,0.726,2.035,2.176v4.829H86.084z"/>
	<path clip-path="url(#SVGID_2_)" fill="#FFFFFF" d="M95.595,140.821h-4.074c0.018,0.938,0.583,1.408,1.697,1.408
		c0.669,0,1.34-0.136,2.014-0.404l0.209,1.576c-0.822,0.305-1.678,0.458-2.566,0.458c-2.318,0-3.476-1.17-3.476-3.51
		c0-1.06,0.294-1.928,0.882-2.6c0.615-0.702,1.439-1.051,2.473-1.051c0.978,0,1.721,0.285,2.229,0.854
		c0.462,0.518,0.693,1.22,0.693,2.109C95.676,140.103,95.649,140.489,95.595,140.821 M93.609,139.44
		c0.026-0.811-0.297-1.212-0.971-1.212c-0.669,0-1.041,0.401-1.117,1.212H93.609z"/>
	<polygon clip-path="url(#SVGID_2_)" fill="#FFFFFF" points="100.829,143.704 99.765,141.608 98.708,143.704 96.209,143.704 
		98.472,140.227 96.344,136.848 98.842,136.848 99.92,138.899 101.011,136.848 103.328,136.848 101.328,140.227 103.449,143.704 	
		"/>
	<path clip-path="url(#SVGID_2_)" fill="#FFFFFF" d="M108.298,143.65c-0.521,0.139-1.04,0.209-1.556,0.209
		c-0.795,0-1.342-0.16-1.643-0.48c-0.301-0.313-0.451-0.89-0.451-1.729v-3.187h-1.037v-1.616h1.037v-2.026l2.108-0.566v2.593h1.475
		v1.616h-1.475v2.702c0,0.349,0.051,0.593,0.154,0.734c0.104,0.135,0.285,0.2,0.546,0.2c0.206,0,0.446-0.03,0.721-0.095
		L108.298,143.65z"/>
	<path clip-path="url(#SVGID_2_)" fill="#FFFFFF" d="M116.192,142.93c-0.754,0.597-1.737,0.896-2.949,0.896
		c-0.477,0-0.937-0.045-1.381-0.135l0.208-1.865c0.328,0.104,0.75,0.154,1.267,0.154c0.561,0,0.999-0.121,1.313-0.363
		c0.301-0.233,0.451-0.546,0.451-0.937c0-0.79-0.662-1.188-1.986-1.188c-0.414,0-0.735,0.027-0.964,0.076v-5.173h4.803v2.001
		l-2.816-0.014v1.446c1.001,0,1.783,0.23,2.344,0.688c0.57,0.472,0.856,1.134,0.856,1.986
		C117.338,141.511,116.956,142.319,116.192,142.93"/>
	<path clip-path="url(#SVGID_2_)" fill="#FFFFFF" d="M124.349,142.633c-0.7,0.803-1.59,1.206-2.667,1.206
		c-2.38,0-3.57-1.559-3.57-4.675c0-1.568,0.382-2.795,1.145-3.684c0.701-0.809,1.587-1.214,2.661-1.214
		c2.393,0,3.589,1.56,3.589,4.676C125.507,140.512,125.122,141.744,124.349,142.633 M122.901,136.739
		c-0.22-0.472-0.574-0.707-1.064-0.707c-0.983,0-1.475,1.004-1.475,3.011c0,1.064,0.114,1.837,0.344,2.317
		c0.219,0.467,0.574,0.699,1.064,0.699c0.983,0,1.475-1.002,1.475-3.005C123.245,137.988,123.13,137.216,122.901,136.739"/>
	<path clip-path="url(#SVGID_2_)" fill="#FFFFFF" d="M143.146,140.966h1.246v1.71h-1.326c-0.333,2.117-1.662,3.173-3.989,3.173
		c-2.509,0-3.764-1.323-3.764-3.973c0-0.778,0.105-1.568,0.316-2.371l2.264-0.396c-0.266,0.88-0.398,1.732-0.398,2.559
		c0,1.648,0.583,2.471,1.751,2.471c0.584,0,1.01-0.176,1.28-0.53c0.297-0.392,0.445-1.042,0.445-1.953v-5.463h2.175V140.966z
		 M138.222,137.862c-0.212-0.212-0.317-0.469-0.317-0.771c0-0.294,0.105-0.548,0.317-0.759c0.211-0.211,0.464-0.318,0.761-0.318
		c0.305,0,0.561,0.105,0.767,0.312c0.216,0.207,0.324,0.463,0.324,0.766c0,0.302-0.108,0.559-0.324,0.771
		c-0.211,0.211-0.466,0.314-0.767,0.314C138.687,138.177,138.433,138.073,138.222,137.862"/>
	<rect x="144.182" y="140.967" clip-path="url(#SVGID_2_)" fill="#FFFFFF" width="3.415" height="1.711"/>
	<rect x="147.469" y="140.967" clip-path="url(#SVGID_2_)" fill="#FFFFFF" width="3.415" height="1.711"/>
	<rect x="150.756" y="140.967" clip-path="url(#SVGID_2_)" fill="#FFFFFF" width="3.415" height="1.711"/>
	<path clip-path="url(#SVGID_2_)" fill="#FFFFFF" d="M154.044,140.967h1.858v-4.777h2.196v4.777h1.724v1.711h-5.778V140.967z
		 M155.95,145.5c-0.198,0.206-0.442,0.31-0.734,0.31c-0.287,0-0.533-0.104-0.735-0.31c-0.202-0.207-0.302-0.458-0.302-0.755
		c0-0.292,0.1-0.541,0.302-0.747c0.202-0.207,0.448-0.311,0.735-0.311s0.532,0.104,0.734,0.311c0.202,0.206,0.303,0.455,0.303,0.747
		C156.253,145.042,156.152,145.293,155.95,145.5 M158.408,145.5c-0.202,0.206-0.447,0.31-0.734,0.31
		c-0.296,0-0.543-0.104-0.741-0.31c-0.198-0.202-0.296-0.454-0.296-0.755c0-0.292,0.098-0.541,0.296-0.747
		c0.198-0.207,0.445-0.311,0.741-0.311c0.287,0,0.532,0.104,0.734,0.311c0.197,0.206,0.297,0.455,0.297,0.747
		C158.705,145.042,158.605,145.293,158.408,145.5"/>
	<path clip-path="url(#SVGID_2_)" fill="#FFFFFF" d="M168.47,142.678c-1.23,0-2.021-0.285-2.371-0.855
		c-0.332,0.643-1.019,0.961-2.061,0.961c-1.014,0-1.643-0.334-1.885-1.002c-0.279,0.598-0.892,0.896-1.839,0.896h-0.714v-1.711
		h0.747c0.422,0,0.712-0.105,0.869-0.316c0.162-0.22,0.242-0.648,0.242-1.286v-2.345h2.197v2.566c0,0.57,0.058,0.964,0.174,1.179
		c0.118,0.207,0.33,0.309,0.64,0.309c0.606,0,0.909-0.491,0.909-1.474v-3.132h2.082v3.408c0,0.439,0.09,0.731,0.27,0.875
		c0.178,0.145,0.55,0.216,1.111,0.216h0.303c0.058-0.539,0.088-1.035,0.088-1.488c0-1.181-0.122-2.387-0.365-3.617l2.129-0.289
		c0.274,1.208,0.411,2.466,0.411,3.778c0,0.525-0.013,1.063-0.041,1.616h1.212v1.711H168.47z"/>
	<path clip-path="url(#SVGID_2_)" fill="#FFFFFF" d="M177.604,142.678c-1.428,0-2.433-0.308-3.017-0.923
		c-0.324,0.615-1.078,0.923-2.263,0.923h-0.209v-1.711c1.037,0,1.556-0.543,1.556-1.63c0-0.93,0.305-1.702,0.916-2.319
		c0.669-0.676,1.587-1.015,2.755-1.015c1.095,0,1.919,0.299,2.471,0.895c0.503,0.554,0.755,1.324,0.755,2.318v1.751h1.024v1.711
		H177.604z M178.446,139.451c0-1.158-0.413-1.737-1.239-1.737c-0.431,0-0.773,0.152-1.024,0.458
		c-0.238,0.292-0.357,0.667-0.357,1.125c0,1.113,0.593,1.67,1.778,1.67h0.842V139.451z"/>
	<path clip-path="url(#SVGID_2_)" fill="#FFFFFF" d="M181.375,140.965h5.106c0.027-0.231,0.041-0.505,0.041-0.813
		c0-1.565-0.829-2.345-2.486-2.345c-0.592,0-1.13,0.041-1.61,0.121v-1.69c0.553-0.094,1.163-0.141,1.832-0.141
		c1.545,0,2.677,0.336,3.394,1.01c0.688,0.645,1.032,1.644,1.032,2.99c0,0.176-0.01,0.465-0.028,0.867h0.956v1.712h-8.237V140.965z
		 M183.881,134.938c-0.207-0.211-0.31-0.47-0.31-0.774c0-0.296,0.103-0.55,0.31-0.761c0.211-0.207,0.465-0.313,0.761-0.313
		c0.305,0,0.563,0.105,0.775,0.313c0.211,0.206,0.317,0.46,0.317,0.761c0,0.305-0.106,0.563-0.317,0.774
		c-0.212,0.211-0.47,0.314-0.775,0.314C184.347,135.253,184.092,135.149,183.881,134.938"/>
	<polygon clip-path="url(#SVGID_2_)" fill="#FFFFFF" points="189.384,140.967 190.954,140.967 190.954,132.95 193.149,132.95 
		193.149,140.967 194.437,140.967 194.437,142.678 189.384,142.678 	"/>
	<polygon clip-path="url(#SVGID_2_)" fill="#FFFFFF" points="194.22,140.967 195.79,140.967 195.79,132.95 197.985,132.95 
		197.985,142.678 194.22,142.678 	"/>
	<path clip-path="url(#SVGID_2_)" fill="#FFFFFF" d="M202.33,140.967h3.873c-0.112-1.791-1.145-2.905-3.099-3.341l0.505-1.806
		c3.158,0.737,4.736,2.667,4.736,5.792v1.065h-6.015V140.967z"/>
	<rect x="209.948" y="132.952" clip-path="url(#SVGID_2_)" fill="#FFFFFF" width="2.183" height="9.726"/>
	<path clip-path="url(#SVGID_2_)" fill="#FFFFFF" d="M213.8,140.967h3.873c-0.112-1.791-1.145-2.905-3.099-3.341l0.505-1.806
		c2.947,0.697,4.516,2.412,4.708,5.146h0.788v1.711H213.8V140.967z"/>
	<path clip-path="url(#SVGID_2_)" fill="#FFFFFF" d="M220.347,140.967h0.499c1.118,0,2.061-0.094,2.829-0.276
		c-1.056-0.979-1.92-1.554-2.593-1.724l0.175-1.557c1.378-0.965,2.707-1.448,3.987-1.448c1.023,0,1.808,0.231,2.351,0.694
		c0.485,0.413,0.727,0.959,0.727,1.636c0,0.915-0.404,1.743-1.213,2.479c0.368,0.131,0.769,0.195,1.199,0.195h0.951v1.711h-1.186
		c-1.051,0-2.003-0.254-2.856-0.763c-1.266,0.509-2.761,0.763-4.486,0.763h-0.384V140.967z M225.534,139.849
		c0.413-0.359,0.619-0.785,0.619-1.279c0-0.683-0.386-1.025-1.158-1.025c-0.481,0-1.056,0.217-1.725,0.648
		C223.509,138.294,224.263,138.848,225.534,139.849"/>
	<rect x="229.049" y="140.967" clip-path="url(#SVGID_2_)" fill="#FFFFFF" width="3.415" height="1.711"/>
	<path clip-path="url(#SVGID_2_)" fill="#FFFFFF" d="M232.336,140.965h1.859v-4.773h2.196v4.773h1.118v1.712h-5.173V140.965z
		 M233.064,134.979c-0.202-0.207-0.304-0.458-0.304-0.755c0-0.292,0.102-0.543,0.304-0.755c0.202-0.206,0.446-0.31,0.733-0.31
		c0.288,0,0.532,0.104,0.735,0.31c0.202,0.212,0.303,0.463,0.303,0.755c0,0.297-0.101,0.548-0.303,0.755
		c-0.203,0.211-0.447,0.314-0.735,0.314C233.51,135.294,233.266,135.19,233.064,134.979 M235.515,134.979
		c-0.197-0.207-0.296-0.458-0.296-0.755s0.099-0.549,0.296-0.755c0.197-0.206,0.444-0.31,0.741-0.31c0.287,0,0.532,0.104,0.735,0.31
		c0.197,0.212,0.295,0.463,0.295,0.755c0,0.297-0.098,0.548-0.295,0.755c-0.203,0.211-0.448,0.314-0.735,0.314
		C235.959,135.294,235.712,135.19,235.515,134.979"/>
	<path clip-path="url(#SVGID_2_)" fill="#FFFFFF" d="M237.287,140.967h0.748c0.422,0,0.712-0.105,0.869-0.316
		c0.161-0.22,0.242-0.648,0.242-1.288v-2.343h2.196v2.566c0,0.568,0.058,0.964,0.175,1.179c0.117,0.207,0.331,0.308,0.64,0.308
		c0.607,0,0.909-0.49,0.909-1.473v-3.132h2.081v3.408c0,0.439,0.09,0.731,0.27,0.875c0.18,0.145,0.55,0.216,1.111,0.216h0.303
		c0.059-0.539,0.088-1.035,0.088-1.488c0-1.181-0.121-2.387-0.363-3.617l2.127-0.291c0.275,1.209,0.412,2.468,0.412,3.78
		c0,1.127-0.061,2.236-0.182,3.327h-2.755c-1.23,0-2.02-0.285-2.371-0.857c-0.332,0.645-1.02,0.963-2.062,0.963
		c-1.014,0-1.642-0.334-1.885-1.003c-0.279,0.599-0.892,0.897-1.839,0.897h-0.714V140.967z"/>
	<path clip-path="url(#SVGID_2_)" fill="#FFFFFF" d="M253.283,140.058h-2.222l-1.832-6.924l2.181-0.305L253.283,140.058z
		 M249.794,142.678v-1.711h4.25v-8.017h2.176v9.728H249.794z"/>
	<rect x="258.369" y="132.952" clip-path="url(#SVGID_2_)" fill="#FFFFFF" width="2.184" height="9.726"/>
</g>
</svg>
