<svg xmlns="http://www.w3.org/2000/svg" width="67" height="94" fill="none" viewBox="0 0 67 94">
  <path fill="#fff" d="M60.58.112H6.42C2.88.112 0 3.167 0 6.927v79.474c0 3.76 2.88 6.815 6.42 6.815h54.16c3.54 0 6.42-3.055 6.42-6.815V6.927c0-3.76-2.88-6.815-6.42-6.815zM2.552 6.927c0-2.264 1.728-4.101 3.868-4.101h19.075v13.651H2.572v-9.55h-.02zm56.731 83.576h-12.84v-4.486h12.84v4.486zm5.145-12.647h-14.98c-.72 0-1.276.62-1.276 1.367 0 .748.576 1.367 1.276 1.367h14.98v5.854c0 1.773-1.07 3.29-2.572 3.867v-4.337c0-1.453-1.111-2.628-2.49-2.628H46.34c-1.378 0-2.49 1.175-2.49 2.628v4.572H6.4c-2.12 0-3.869-1.838-3.869-4.102V80.59h41.752c.72 0 1.275-.62 1.275-1.367 0-.748-.576-1.367-1.276-1.367H2.532V19.212h61.876v58.644h.02zm0-61.379H28.047V2.847h32.512c2.12 0 3.869 1.837 3.869 4.102v9.528zM33.5 69.695c11.009 0 19.96-9.486 19.96-21.172 0-11.665-8.951-21.172-19.96-21.172a18.985 18.985 0 00-10.782 3.355c-.597.405-.762 1.239-.392 1.88.391.64 1.173.811 1.77.405 2.799-1.901 6.05-2.927 9.404-2.927 9.589 0 17.388 8.268 17.388 18.438 0 10.169-7.799 18.437-17.388 18.437-9.59 0-17.388-8.268-17.388-18.437 0-4.594 1.585-8.973 4.486-12.37.473-.556.432-1.431-.082-1.923a1.224 1.224 0 00-1.811.086c-3.334 3.91-5.165 8.951-5.165 14.207-.02 11.707 8.951 21.193 19.96 21.193zM21.627 11.029H6.42c-.72 0-1.276.62-1.276 1.368 0 .747.577 1.367 1.276 1.367h15.207c.72 0 1.276-.62 1.276-1.367 0-.748-.576-1.368-1.276-1.368zm0-5.448H6.42c-.72 0-1.276.62-1.276 1.368 0 .748.577 1.367 1.276 1.367h15.207c.72 0 1.276-.62 1.276-1.367 0-.77-.576-1.368-1.276-1.368zM33.5 54.783a1.224 1.224 0 001.81 0l4.816-5.106a1.433 1.433 0 000-1.923 1.224 1.224 0 00-1.81 0L33.5 52.86c-.494.513-.494 1.389 0 1.923zm.988-49.202c-2.12 0-3.869 1.838-3.869 4.102 0 2.265 1.729 4.102 3.869 4.102s3.868-1.837 3.868-4.102c-.02-2.286-1.749-4.102-3.868-4.102zm0 5.448c-.72 0-1.276-.62-1.276-1.367 0-.748.576-1.367 1.276-1.367.7 0 1.276.62 1.276 1.367 0 .748-.577 1.367-1.276 1.367zM59.55 5.581H43.233c-1.276 0-2.305 1.111-2.305 2.457v3.269c0 1.346 1.03 2.457 2.305 2.457h16.318c1.276 0 2.305-1.09 2.305-2.457v-3.29c0-1.346-1.03-2.436-2.305-2.436zm-.268 5.448H43.48V8.295h15.803v2.734zM33.5 64.247c8.17 0 14.816-7.05 14.816-15.724S41.669 32.799 33.5 32.799c-8.17 0-14.816 7.05-14.816 15.724S25.331 64.247 33.5 64.247zm0-28.713c6.75 0 12.244 5.832 12.244 12.989 0 7.157-5.495 12.99-12.244 12.99-6.75 0-12.244-5.833-12.244-12.99s5.495-12.99 12.244-12.99zm-.74 13.78l4.814-5.106a1.433 1.433 0 000-1.923 1.224 1.224 0 00-1.81 0l-4.816 5.106a1.433 1.433 0 000 1.922c.494.534 1.297.534 1.811 0z"/>
</svg>
