<svg xmlns="http://www.w3.org/2000/svg" width="85" height="94" fill="none" viewBox="0 0 85 94">
  <path fill="#fff" d="M66.25 13.672c.723 0 1.301-.619 1.301-1.365s-.578-1.364-1.3-1.364c-.723 0-1.301.618-1.301 1.364.02.746.598 1.365 1.3 1.365zM79.694.112c-2.932 0-5.307 2.516-5.307 5.607 0 3.092 2.375 5.608 5.307 5.608C82.625 11.327 85 8.81 85 5.719 85 2.628 82.625.112 79.693.112zm0 8.486c-1.507 0-2.726-1.3-2.726-2.879 0-1.577 1.219-2.878 2.726-2.878 1.508 0 2.726 1.3 2.726 2.878 0 1.6-1.218 2.879-2.726 2.879zm-25.811 4.434c2.416 0 4.398-2.068 4.398-4.626 0-2.559-1.982-4.627-4.398-4.627-2.416 0-4.399 2.09-4.399 4.627s1.983 4.626 4.399 4.626zm0-6.545c.99 0 1.817.853 1.817 1.897 0 1.045-.806 1.92-1.817 1.92-.992 0-1.817-.854-1.817-1.92 0-1.044.825-1.897 1.817-1.897zm23.395 22.364c-.082-2.686-1.156-5.308-2.994-7.206-1.9-1.961-4.378-3.027-7-2.984-2.313.042-4.522.938-6.257 2.515-2.911-3.581-7.186-5.67-11.687-5.67-1.673 0-3.304.276-4.873.83-3.635-3.474-8.301-5.372-13.237-5.372-4.997 0-9.746 1.962-13.4 5.543-3.346 3.284-5.494 7.611-6.113 12.323h-.93c-2.147 0-3.881 1.834-3.881 4.094 0 1.833 1.156 3.39 2.746 3.901l.723 5.16c-3.78 3.283-6.711 7.078-8.466 11.022-1.92 4.264-2.396 8.485-1.405 12.216 1.053 3.945 3.738 7.249 7.744 9.573 2.023 1.172 4.398 2.068 7.02 2.686l1.157 8.336c.578 4.222 4.068 7.398 8.094 7.398H64.31c4.048 0 7.517-3.176 8.095-7.398l6.773-48.971c1.59-.512 2.726-2.069 2.726-3.902 0-2.665-2.23-4.37-4.626-4.093zm-57.694-10.34c3.18-3.112 7.31-4.818 11.646-4.818 4.523 0 8.797 1.855 12.018 5.202.372.384.909.49 1.384.299a12.3 12.3 0 014.708-.938c4.17 0 8.115 2.153 10.51 5.777a1.255 1.255 0 002.045.085c1.362-1.705 3.324-2.686 5.43-2.728 1.92-.043 3.738.746 5.142 2.195 1.342 1.386 2.147 3.305 2.23 5.267H46.654c-1.28 0-2.333 1.108-2.333 2.451v4.179c0 1.77-1.363 3.22-3.056 3.22s-3.056-1.45-3.056-3.22c0-.746-.578-1.364-1.301-1.364s-1.301.618-1.301 1.364v15.01c0 2.515-1.941 4.583-4.336 4.583-2.396 0-4.337-2.047-4.337-4.584V31.303c0-1.364-1.032-2.451-2.333-2.451H14.338a18.387 18.387 0 015.245-10.34zM78.021 34.31H50.805c-.723 0-1.301.619-1.301 1.365s.578 1.364 1.3 1.364h25.73l-6.69 48.418c-.393 2.878-2.788 5.053-5.555 5.053H24.498c-2.767 0-5.142-2.175-5.555-5.053l-1.032-7.44c1.713.255 3.469.383 5.245.383.722 0 1.3-.618 1.3-1.365 0-.746-.578-1.364-1.3-1.364-2.23 0-4.44-.213-6.546-.64-5.989-1.215-12.08-4.562-13.67-10.51-1.57-5.863 1.487-13.261 7.826-19.295l.454 3.326c-3.84 4.136-7.124 10.255-5.802 15.244 1.094 4.115 5.554 6.843 9.788 8.123h.02c5.183 1.407 11.522 1.385 16.602-.256 8.425-2.729 13.38-9.765 16.169-15.777.702.49 1.507.874 2.354 1.087-3.82 8.187-10.284 14.882-17.78 17.312-1.445.47-2.993.832-4.604 1.066-.702.107-1.198.79-1.095 1.535.104.746.764 1.258 1.466 1.151a30.908 30.908 0 005.018-1.15c8.632-2.794 15.776-10.447 19.823-19.807 3.49-.576 6.175-3.773 6.175-7.611 0-4.243-3.284-7.697-7.31-7.697-4.027 0-7.31 3.454-7.31 7.697a7.89 7.89 0 001.322 4.392c-4.337 9.935-10.51 13.751-14.971 15.18-4.316 1.385-9.747 1.556-14.351.447l-4.46-32.449h8.218c.723 0 1.3-.618 1.3-1.364 0-.746-.578-1.365-1.3-1.365h-9.705c-.723 0-1.301-.618-1.301-1.364 0-.746.578-1.364 1.3-1.364h13.588v18.91c0 4.03 3.097 7.313 6.938 7.313 3.82 0 6.938-3.283 6.938-7.313v-9.999c.888.597 1.92.96 3.056.96 3.098 0 5.638-2.665 5.638-5.949v-3.901H78.02c.722 0 1.3.618 1.3 1.364 0 .725-.578 1.343-1.3 1.343zM11.737 52.005l2.292 16.608c-2.747-1.066-5.41-3.049-6.071-5.586-.95-3.517 1.3-7.93 3.778-11.022zm35.62-2.558c0-2.75 2.106-4.968 4.728-4.968 2.602 0 4.729 2.239 4.729 4.968 0 2.75-2.127 4.988-4.729 4.988-2.602-.02-4.729-2.238-4.729-4.988z"/>
</svg>
