<svg xmlns="http://www.w3.org/2000/svg" width="90" height="97" fill="none" viewBox="0 0 90 97">
  <path fill="#fff" d="M89.98 31.367c0-2.576-.946-5.003-2.672-6.833-1.727-1.831-4.029-2.831-6.454-2.831H66.632c-4.686 0-8.51-4.045-8.51-9.005 0-2.405.885-4.662 2.488-6.365 1.603-1.703 3.74-2.64 6.022-2.64h22.053c.719 0 1.315-.616 1.315-1.383 0-.766-.617-1.405-1.336-1.405H66.611c-2.98 0-5.775 1.235-7.892 3.449-2.096 2.235-3.268 5.194-3.268 8.344 0 6.493 4.994 11.793 11.14 11.793h14.222c1.747 0 3.37.724 4.604 2.022 1.233 1.299 1.911 3.023 1.911 4.875a7.198 7.198 0 01-1.5 4.406l-3.926 4.982c-1.377-.511-2.98-.17-4.09.979l-1.582 1.681c-3.577-.085-7.584.724-11.037 1.384-.72.128-1.192.851-1.069 1.618.124.766.802 1.256 1.521 1.128 3.33-.617 6.741-1.064 10.153-1.341 1.357-.107 2.61.809 2.98 2.192.33 1.171 8.262 29.78 8.53 30.973.082.404-.124.68-.514.68-4.008 0-7.214 2.917-8.509 6.791H21.991c-.719 0-1.315.618-1.315 1.384 0 .766.596 1.405 1.315 1.405h57.61c.945 0 1.726.83 1.726 1.83 0 1.022-.781 1.831-1.747 1.831H2.795C3.371 91.204 5.22 89.63 7.4 89.63h9.31c.72 0 1.316-.618 1.316-1.405 0-.788-.596-1.384-1.316-1.384H8.817C19.792 66.085 39.03 53.93 60.63 48.63c.7-.17 1.151-.915.987-1.681-.165-.745-.863-1.214-1.583-1.043-12.578 3.086-25.238 8.748-35.412 17.22l-1.767-1.873a3.826 3.826 0 00-5.59 0c-1.522 1.618-1.542 4.3 0 5.918l1.417 1.49c-5.179 5.386-9.516 11.58-13.01 18.392C2.426 87.883 0 90.991 0 94.695c0 .766.596 1.384 1.315 1.384H79.6c2.405 0 4.378-2.065 4.378-4.62 0-2-1.213-3.704-2.877-4.342.924-2.512 3.144-4.279 5.734-4.279 2.014 0 3.576-2.128 3.062-4.193v-.043l-8.056-29.27 1.603-1.702c1.294-1.363 1.52-3.555.555-5.152l3.884-4.938c1.357-1.703 2.096-3.917 2.096-6.173zM19.133 63.254c.247-.255.576-.404.925-.404.35 0 .679.149.925.404l1.583 1.682a41.25 41.25 0 00-1.973 1.852l-1.46-1.554c-.513-.553-.513-1.447 0-1.98zm62.419-17.561l-.699.745a5.693 5.693 0 00-1.809-2.044l.638-.68a1.26 1.26 0 011.87 0c.246.255.39.616.39.978 0 .383-.144.745-.39 1zm-37.92 17.625c-2.425 1.426-3.946 4.13-3.946 7.067 0 2.236.884 4.385 2.425 5.897 1.419 1.405 3.31 2.192 5.241 2.192.165 0 26.554-1.83 26.554-1.83 1.213-.085 2.323-.724 3.042-1.767a4.534 4.534 0 00.678-3.597l-3.432-14.944c-.534-2.299-2.672-3.725-4.87-3.214a91.358 91.358 0 00-15.518 5.045 95.538 95.538 0 00-10.174 5.151zm18.868 11.325l-11.86.83v-3.278c0-.043.042-.085.083-.085h11.694c.041 0 .083.042.083.085v2.448zm7.378-18.797c.103-.02.206-.042.329-.042.678 0 1.274.468 1.439 1.192l3.432 14.943c.103.447.02.916-.247 1.299a1.48 1.48 0 01-1.09.638l-8.61.596v-2.277c0-1.575-1.213-2.874-2.714-2.874H50.724c-1.5 0-2.713 1.277-2.713 2.874v3.47l-.329.02c-1.397.107-2.733-.404-3.761-1.425-1.028-1.022-1.583-2.385-1.583-3.875 0-1.937.987-3.704 2.59-4.64a88.392 88.392 0 019.886-5.003 89.235 89.235 0 0115.065-4.895z"/>
</svg>
