<svg xmlns="http://www.w3.org/2000/svg" width="137" height="137" fill="none" viewBox="0 0 137 137">
  <g clip-path="url(#clip0)">
    <path fill="#1E4694" d="M103.12 27.512a2.006 2.006 0 002.006-2.006v-2.698a2.006 2.006 0 10-4.013 0v2.698c0 1.108.898 2.006 2.007 2.006zM124.954 45.333a2.006 2.006 0 100 4.013h2.697a2.006 2.006 0 100-4.013h-2.697zM78.588 45.333a2.007 2.007 0 100 4.013h2.698a2.007 2.007 0 100-4.013h-2.698zM111.921 109.436a6.472 6.472 0 00-6.464 6.464c0 3.563 2.9 6.463 6.464 6.463 3.564 0 6.464-2.9 6.464-6.463 0-3.564-2.9-6.464-6.464-6.464zm0 8.913a2.452 2.452 0 01-2.45-2.449 2.453 2.453 0 012.45-2.45 2.453 2.453 0 012.45 2.45 2.452 2.452 0 01-2.45 2.449zM38.645 115.9c0 3.563 2.9 6.463 6.464 6.463 3.564 0 6.463-2.9 6.463-6.463 0-3.564-2.9-6.464-6.463-6.464a6.47 6.47 0 00-6.464 6.464zm8.913 0a2.452 2.452 0 01-2.45 2.449 2.452 2.452 0 01-2.45-2.449c0-1.351 1.1-2.45 2.45-2.45a2.453 2.453 0 012.45 2.45z"/>
    <path fill="#4ACDBA" d="M58.734 85.098a5.936 5.936 0 00-.047-8.545l-8.342-8.12c-3.009-2.928-7.84-2.863-10.768.146l-1.562 1.605a2.007 2.007 0 00.038 2.837l8.04 7.827-8.04 7.826a2.008 2.008 0 00-.038 2.838l1.562 1.605a7.613 7.613 0 0010.768.145l8.389-8.164zm-16.28 5.22l-.163-.167 8.08-7.865a2.007 2.007 0 000-2.876l-8.08-7.865.162-.167a3.606 3.606 0 015.093-.069l8.341 8.12c.89.866.772 2.087.047 2.793l-8.388 8.165a3.601 3.601 0 01-5.093-.07z"/>
    <path fill="#1E4694" d="M101.113 47.34c0 1.108.898 2.006 2.007 2.006h6.824a2.006 2.006 0 100-4.013h-4.818V32.835a2.006 2.006 0 10-4.013 0v14.504z"/>
    <path fill="#4ACDBA" d="M34.282 30.188h34.556a2.006 2.006 0 100-4.014H34.282a2.007 2.007 0 100 4.014zM25.906 40.556h35.87a2.007 2.007 0 100-4.014h-35.87a2.007 2.007 0 100 4.014zM46.427 45.788a2.007 2.007 0 100 4.014h17.849a2.007 2.007 0 100-4.014h-17.85zM29.507 45.788a2.007 2.007 0 100 4.014h8.908a2.007 2.007 0 100-4.014h-8.908zM2.007 77.439h7.34a2.007 2.007 0 100-4.014h-7.34a2.007 2.007 0 100 4.014zM7.358 95.116H2.007a2.007 2.007 0 100 4.014h5.351a2.007 2.007 0 100-4.014zM30.968 78.122H23.81a2.007 2.007 0 100 4.013h7.158a2.007 2.007 0 100-4.013z"/>
    <path fill="#1E4694" d="M122.018 75.458C131.316 69.194 137 58.638 137 47.339c0-5.37-1.221-10.508-3.631-15.271a2.007 2.007 0 00-3.582 1.811c2.123 4.197 3.199 8.726 3.199 13.46 0 10.161-5.216 19.641-13.71 25.118l-11.684-12.785a7.197 7.197 0 00-5.301-2.337H74.969a29.722 29.722 0 01-1.716-9.996c0-16.469 13.398-29.866 29.867-29.866a29.899 29.899 0 0122.365 10.075 2.005 2.005 0 103.004-2.661 33.903 33.903 0 00-10.392-7.93V10.16a4.484 4.484 0 00-4.479-4.479H92.621a4.484 4.484 0 00-4.479 4.48v6.794C76.952 22.493 69.24 34.031 69.24 47.339c0 3.42.506 6.77 1.503 9.996H19.567a4.892 4.892 0 00-4.868 4.487H7.36a2.007 2.007 0 100 4.014h7.32v19.397H2.007a2.007 2.007 0 100 4.014h12.672v5.87a2.006 2.006 0 000 4.011v14.196a3.825 3.825 0 003.82 3.821h5.4v1.397h-6.261a2.006 2.006 0 100 4.013h8.268a2.007 2.007 0 002.007-2.007v-3.403h1.831c.637 7.921 7.282 14.173 15.365 14.173 2.667 0 5.3-.696 7.613-2.012a2.008 2.008 0 00-1.985-3.489 11.401 11.401 0 01-5.628 1.488c-6.29 0-11.406-5.117-11.406-11.406 0-6.289 5.117-11.406 11.406-11.406 6.288 0 11.405 5.117 11.405 11.406 0 1.715-.372 3.364-1.105 4.901a2.006 2.006 0 103.623 1.728 15.244 15.244 0 001.44-5.383h36.085c.636 7.921 7.282 14.173 15.364 14.173 8.083 0 14.728-6.252 15.365-14.173h4.131a5.59 5.59 0 005.583-5.583v-16.93c0-1.793-.666-3.51-1.876-4.833l-13.106-14.341zM92.156 10.16c0-.256.209-.465.465-.465h20.997c.257 0 .465.209.465.465v5.129a33.832 33.832 0 00-21.927-.008v-5.12zm12.474 52.22l20.884 22.853h-14.97a2.006 2.006 0 100 4.014h18.638l2.98 3.26c1.214 1.33.704 2.772.824 4.303h-1.547a2.007 2.007 0 000 4.014h1.547v2.969h-11.533a15.334 15.334 0 00-9.531-3.313 15.335 15.335 0 00-9.532 3.313H80.524V61.349h8.655v23.859a4.044 4.044 0 004.04 4.04h9.302a2.006 2.006 0 100-4.014h-9.303a.025.025 0 01-.025-.026v-23.86h9.098c.887 0 1.74.377 2.339 1.032zm-7.874 50.751H80.523v-5.324h18.28a15.32 15.32 0 00-2.047 5.324zm-38.53-5.324H76.51v5.324H60.274a15.317 15.317 0 00-2.048-5.324zm-39.533 0H31.99a15.321 15.321 0 00-2.048 5.324h-11.25v-5.324zm16.883-4.014H18.693V99.13h8.696a2.007 2.007 0 100-4.014h-8.696v-5.87h8.696a2.007 2.007 0 100-4.013h-8.696v-23.01c0-.482.392-.874.874-.874H76.51v42.444H54.64a15.337 15.337 0 00-9.531-3.313 15.339 15.339 0 00-9.533 3.313zm76.345 23.512c-6.289 0-11.405-5.116-11.405-11.405 0-6.29 5.116-11.406 11.405-11.406s11.406 5.116 11.406 11.406c0 6.289-5.117 11.405-11.406 11.405zm19.496-14.174h-4.331a15.286 15.286 0 00-2.048-5.324h7.948v3.755c0 .865-.704 1.569-1.569 1.569z"/>
  </g>
  <defs>
    <clipPath id="clip0">
      <path fill="#fff" d="M0 0h137v137H0z"/>
    </clipPath>
  </defs>
</svg>
