<svg xmlns="http://www.w3.org/2000/svg" width="121" height="121" fill="none" viewBox="0 0 121 121">
  <g clip-path="url(#clip0)">
    <path fill="#4ACDBA" d="M32.613 86.142c-8.937.37-8.93 13.103 0 13.47h18.434c8.937-.37 8.93-13.103 0-13.47H32.613zm21.624 6.735c0 1.76-1.43 3.19-3.19 3.19H32.613c-4.233-.175-4.23-6.206 0-6.38h18.434c1.76 0 3.19 1.43 3.19 3.19z"/>
    <path fill="#1E4694" d="M109.271 18.788h-9.023c-2.347.081-2.345 3.465 0 3.545h9.023a2.87 2.87 0 012.867 2.867v47.44a2.87 2.87 0 01-2.867 2.867H27.799a2.87 2.87 0 01-2.866-2.867v-2.374h19.024c10.505-.436 10.498-15.401 0-15.834H24.933V25.2a2.87 2.87 0 012.866-2.867h64.118c2.346-.081 2.345-3.465 0-3.545H78.343v-7.562C78.343 5.036 73.307 0 67.117 0H16.543C10.353 0 5.317 5.036 5.317 11.226v10.17c.082 2.348 3.465 2.346 3.545 0v-10.17c0-4.236 3.446-7.681 7.681-7.681h50.574c4.235 0 7.68 3.445 7.68 7.68v7.563h-2.599v-7.562a5.087 5.087 0 00-5.08-5.081H57.64c-1.306 0-2.47.829-2.898 2.065l-1.135 3.304H30.053l-1.137-3.306a3.066 3.066 0 00-2.897-2.063h-9.476a5.087 5.087 0 00-5.081 5.08v98.55a5.087 5.087 0 005.081 5.081h50.574a5.087 5.087 0 005.081-5.081v-5.542c-.081-2.347-3.464-2.345-3.545 0v5.542c0 .847-.689 1.536-1.536 1.536H16.543a1.538 1.538 0 01-1.536-1.536v-98.55c0-.846.689-1.535 1.536-1.535h9.134l1.137 3.305a3.065 3.065 0 002.897 2.064H53.95c1.307 0 2.471-.83 2.898-2.066l1.136-3.304h9.134c.847 0 1.536.69 1.536 1.537v7.562H27.8a6.419 6.419 0 00-6.411 6.412v47.44a6.42 6.42 0 006.411 6.412h40.854v16.914c.082 2.347 3.465 2.346 3.545 0V79.052h2.6v30.722c0 4.236-3.446 7.681-7.68 7.681H16.542c-4.235 0-7.68-3.445-7.68-7.681V29.777c-.082-2.347-3.465-2.345-3.546 0v79.997c0 6.19 5.036 11.226 11.226 11.226h50.574c6.19 0 11.226-5.036 11.226-11.226V79.052h30.928a6.42 6.42 0 006.412-6.412V25.2a6.42 6.42 0 00-6.412-6.412zm-65.314 39.19c5.802.24 5.797 8.505 0 8.744H24.933v-8.745h19.024z"/>
    <path fill="#4ACDBA" d="M82.048 70.84a1.772 1.772 0 002.288-1.025l.843-2.215h5.8l.834 2.21a1.772 1.772 0 103.316-1.252l-5.085-13.477-.02-.049a2.075 2.075 0 00-1.925-1.29h-.003a2.075 2.075 0 00-1.94 1.335l-5.133 13.476a1.772 1.772 0 001.025 2.288zm6.044-10.889l1.55 4.104h-3.113l1.564-4.104zM98.234 62.727l-.016 6.453c-.003.979.789 1.774 1.768 1.776h.004c.977 0 1.77-.79 1.773-1.767l.015-6.46 4.045-6.212a1.773 1.773 0 00-2.971-1.934l-2.847 4.373-2.88-4.41a1.773 1.773 0 00-2.968 1.938l4.077 6.243zM70.998 69.184c.081 2.347 3.465 2.345 3.545 0V65.01c.749-.004 1.56-.008 2.033-.008 7.57-.31 7.567-10.95 0-11.26h-3.805c-.955-.018-1.794.825-1.773 1.779v13.663zm5.578-11.896c1.172 0 2.161.954 2.161 2.084 0 1.13-.99 2.085-2.16 2.085-.471 0-1.273.004-2.017.007-.01-1.758-.006-2.365-.012-4.177h2.028zM35.213 28.005a3.194 3.194 0 00-3.19 3.19v9.453c0 1.76 1.43 3.19 3.19 3.19h14.652c1.76 0 3.19-1.43 3.19-3.19v-9.453c0-1.759-1.43-3.19-3.19-3.19H35.213zM49.51 40.294H35.567V31.55h13.944v8.744zM64.731 34.048v2.835c.082 2.347 3.465 2.346 3.545 0v-2.835c-.08-2.347-3.464-2.346-3.545 0zM95.738 38.656c.979 0 1.772-.793 1.772-1.773v-2.835c-.08-2.347-3.464-2.346-3.544 0v2.835c0 .98.793 1.773 1.772 1.773zM103.829 36.883v-2.835c-.081-2.347-3.465-2.346-3.545 0v2.835c.081 2.347 3.465 2.346 3.545 0zM77.45 36.883v-2.835c-.081-2.347-3.464-2.346-3.545 0v2.835c.081 2.347 3.465 2.346 3.545 0zM82.374 38.656c.98 0 1.773-.793 1.773-1.773v-2.835c-.081-2.347-3.465-2.346-3.545 0v2.835c0 .98.793 1.773 1.772 1.773z"/>
  </g>
  <defs>
    <clipPath id="clip0">
      <path fill="#fff" d="M0 0h121v121H0z"/>
    </clipPath>
  </defs>
</svg>
